<?xml version="1.0" encoding="UTF-8" standalone="no"?>
<!DOCTYPE svg PUBLIC "-//W3C//DTD SVG 1.1//EN"
 "http://www.w3.org/Graphics/SVG/1.1/DTD/svg11.dtd">
<!-- Generated by graphviz version 2.43.0 (0)
 -->
<!-- Title: g Pages: 1 -->
<svg width="619pt" height="504pt"
 viewBox="0.00 0.00 619.00 504.00" xmlns="http://www.w3.org/2000/svg" xmlns:xlink="http://www.w3.org/1999/xlink">
<g id="graph0" class="graph" transform="scale(1 1) rotate(0) translate(4 500)">
<title>g</title>
<polygon fill="white" stroke="transparent" points="-4,4 -4,-500 615,-500 615,4 -4,4"/>
<!-- table1 -->
<g id="node1" class="node">
<title>table1</title>
<polygon fill="none" stroke="black" points="8.5,-466.5 8.5,-491.5 603.5,-491.5 603.5,-466.5 8.5,-466.5"/>
<text text-anchor="start" x="227.5" y="-476.3" font-family="Arial" font-weight="bold" font-size="14.00">GLOBALS [ProgramOP]</text>
<polygon fill="none" stroke="black" points="8.5,-441.5 8.5,-466.5 71.5,-466.5 71.5,-441.5 8.5,-441.5"/>
<text text-anchor="start" x="13.5" y="-450.3" font-family="Arial" font-size="14.00">sommac</text>
<polygon fill="none" stroke="black" points="71.5,-441.5 71.5,-466.5 121.5,-466.5 121.5,-441.5 71.5,-441.5"/>
<text text-anchor="start" x="76.5" y="-450.3" font-family="Arial" font-size="14.00">PROC</text>
<polygon fill="none" stroke="black" points="121.5,-441.5 121.5,-466.5 603.5,-466.5 603.5,-441.5 121.5,-441.5"/>
<text text-anchor="start" x="126.5" y="-450.3" font-family="Arial" font-size="14.00">INOUT:INTEGER, INOUT:INTEGER, INOUT:REAL, OUT:STRING, OUT:REAL</text>
<polygon fill="none" stroke="black" points="8.5,-416.5 8.5,-441.5 71.5,-441.5 71.5,-416.5 8.5,-416.5"/>
<text text-anchor="start" x="17" y="-425.3" font-family="Arial" font-size="14.00">stampa</text>
<polygon fill="none" stroke="black" points="71.5,-416.5 71.5,-441.5 121.5,-441.5 121.5,-416.5 71.5,-416.5"/>
<text text-anchor="start" x="82.5" y="-425.3" font-family="Arial" font-size="14.00">FUN</text>
<polygon fill="none" stroke="black" points="121.5,-416.5 121.5,-441.5 603.5,-441.5 603.5,-416.5 121.5,-416.5"/>
<text text-anchor="start" x="158" y="-425.3" font-family="Arial" font-size="14.00">IN:REAL, IN:REAL, IN:INTEGER, IN:STRING, IN:REAL → STRING</text>
<polygon fill="none" stroke="black" points="8.5,-391.5 8.5,-416.5 71.5,-416.5 71.5,-391.5 8.5,-391.5"/>
<text text-anchor="start" x="36.5" y="-400.3" font-family="Arial" font-size="14.00">c</text>
<polygon fill="none" stroke="black" points="71.5,-391.5 71.5,-416.5 121.5,-416.5 121.5,-391.5 71.5,-391.5"/>
<text text-anchor="start" x="82.5" y="-400.3" font-family="Arial" font-size="14.00">VAR</text>
<polygon fill="none" stroke="black" points="121.5,-391.5 121.5,-416.5 603.5,-416.5 603.5,-391.5 121.5,-391.5"/>
<text text-anchor="start" x="332" y="-400.3" font-family="Arial" font-size="14.00">INTEGER</text>
<polygon fill="none" stroke="black" points="8.5,-366.5 8.5,-391.5 71.5,-391.5 71.5,-366.5 8.5,-366.5"/>
<text text-anchor="start" x="24.5" y="-375.3" font-family="Arial" font-size="14.00">main</text>
<polygon fill="none" stroke="black" points="71.5,-366.5 71.5,-391.5 121.5,-391.5 121.5,-366.5 71.5,-366.5"/>
<text text-anchor="start" x="76.5" y="-375.3" font-family="Arial" font-size="14.00">PROC</text>
<polygon fill="none" stroke="black" points="121.5,-366.5 121.5,-391.5 603.5,-391.5 603.5,-366.5 121.5,-366.5"/>
</g>
<!-- table2 -->
<g id="node2" class="node">
<title>table2</title>
<polygon fill="none" stroke="black" points="28.5,-272.5 28.5,-297.5 195.5,-297.5 195.5,-272.5 28.5,-272.5"/>
<text text-anchor="start" x="59" y="-282.3" font-family="Arial" font-weight="bold" font-size="14.00">stampa [FunOP]</text>
<polygon fill="none" stroke="black" points="28.5,-247.5 28.5,-272.5 86.5,-272.5 86.5,-247.5 28.5,-247.5"/>
<text text-anchor="start" x="53.5" y="-256.3" font-family="Arial" font-size="14.00">a</text>
<polygon fill="none" stroke="black" points="86.5,-247.5 86.5,-272.5 124.5,-272.5 124.5,-247.5 86.5,-247.5"/>
<text text-anchor="start" x="91.5" y="-256.3" font-family="Arial" font-size="14.00">VAR</text>
<polygon fill="none" stroke="black" points="124.5,-247.5 124.5,-272.5 195.5,-272.5 195.5,-247.5 124.5,-247.5"/>
<text text-anchor="start" x="142" y="-256.3" font-family="Arial" font-size="14.00">REAL</text>
<polygon fill="none" stroke="black" points="28.5,-222.5 28.5,-247.5 86.5,-247.5 86.5,-222.5 28.5,-222.5"/>
<text text-anchor="start" x="33.5" y="-231.3" font-family="Arial" font-size="14.00">risultato</text>
<polygon fill="none" stroke="black" points="86.5,-222.5 86.5,-247.5 124.5,-247.5 124.5,-222.5 86.5,-222.5"/>
<text text-anchor="start" x="91.5" y="-231.3" font-family="Arial" font-size="14.00">VAR</text>
<polygon fill="none" stroke="black" points="124.5,-222.5 124.5,-247.5 195.5,-247.5 195.5,-222.5 124.5,-222.5"/>
<text text-anchor="start" x="142" y="-231.3" font-family="Arial" font-size="14.00">REAL</text>
<polygon fill="none" stroke="black" points="28.5,-197.5 28.5,-222.5 86.5,-222.5 86.5,-197.5 28.5,-197.5"/>
<text text-anchor="start" x="53.5" y="-206.3" font-family="Arial" font-size="14.00">b</text>
<polygon fill="none" stroke="black" points="86.5,-197.5 86.5,-222.5 124.5,-222.5 124.5,-197.5 86.5,-197.5"/>
<text text-anchor="start" x="91.5" y="-206.3" font-family="Arial" font-size="14.00">VAR</text>
<polygon fill="none" stroke="black" points="124.5,-197.5 124.5,-222.5 195.5,-222.5 195.5,-197.5 124.5,-197.5"/>
<text text-anchor="start" x="142" y="-206.3" font-family="Arial" font-size="14.00">REAL</text>
<polygon fill="none" stroke="black" points="28.5,-172.5 28.5,-197.5 86.5,-197.5 86.5,-172.5 28.5,-172.5"/>
<text text-anchor="start" x="54" y="-181.3" font-family="Arial" font-size="14.00">c</text>
<polygon fill="none" stroke="black" points="86.5,-172.5 86.5,-197.5 124.5,-197.5 124.5,-172.5 86.5,-172.5"/>
<text text-anchor="start" x="91.5" y="-181.3" font-family="Arial" font-size="14.00">VAR</text>
<polygon fill="none" stroke="black" points="124.5,-172.5 124.5,-197.5 195.5,-197.5 195.5,-172.5 124.5,-172.5"/>
<text text-anchor="start" x="129.5" y="-181.3" font-family="Arial" font-size="14.00">INTEGER</text>
<polygon fill="none" stroke="black" points="28.5,-147.5 28.5,-172.5 86.5,-172.5 86.5,-147.5 28.5,-147.5"/>
<text text-anchor="start" x="55.5" y="-156.3" font-family="Arial" font-size="14.00">i</text>
<polygon fill="none" stroke="black" points="86.5,-147.5 86.5,-172.5 124.5,-172.5 124.5,-147.5 86.5,-147.5"/>
<text text-anchor="start" x="91.5" y="-156.3" font-family="Arial" font-size="14.00">VAR</text>
<polygon fill="none" stroke="black" points="124.5,-147.5 124.5,-172.5 195.5,-172.5 195.5,-147.5 124.5,-147.5"/>
<text text-anchor="start" x="129.5" y="-156.3" font-family="Arial" font-size="14.00">INTEGER</text>
<polygon fill="none" stroke="black" points="28.5,-122.5 28.5,-147.5 86.5,-147.5 86.5,-122.5 28.5,-122.5"/>
<text text-anchor="start" x="41" y="-131.3" font-family="Arial" font-size="14.00">taglia</text>
<polygon fill="none" stroke="black" points="86.5,-122.5 86.5,-147.5 124.5,-147.5 124.5,-122.5 86.5,-122.5"/>
<text text-anchor="start" x="91.5" y="-131.3" font-family="Arial" font-size="14.00">VAR</text>
<polygon fill="none" stroke="black" points="124.5,-122.5 124.5,-147.5 195.5,-147.5 195.5,-122.5 124.5,-122.5"/>
<text text-anchor="start" x="134" y="-131.3" font-family="Arial" font-size="14.00">STRING</text>
</g>
<!-- table1&#45;&gt;table2 -->
<g id="edge1" class="edge">
<title>table1&#45;&gt;table2</title>
<path fill="none" stroke="black" d="M244.99,-362.91C234.13,-351 222.94,-338.66 212.5,-327 207.55,-321.47 202.49,-315.78 197.39,-310.03"/>
<polygon fill="black" stroke="black" points="199.67,-307.32 190.42,-302.15 194.43,-311.96 199.67,-307.32"/>
</g>
<!-- table4 -->
<g id="node3" class="node">
<title>table4</title>
<polygon fill="none" stroke="black" points="229.5,-260.5 229.5,-285.5 382.5,-285.5 382.5,-260.5 229.5,-260.5"/>
<text text-anchor="start" x="246" y="-270.3" font-family="Arial" font-weight="bold" font-size="14.00">sommac [ProcOP]</text>
<polygon fill="none" stroke="black" points="229.5,-235.5 229.5,-260.5 273.5,-260.5 273.5,-235.5 229.5,-235.5"/>
<text text-anchor="start" x="247.5" y="-244.3" font-family="Arial" font-size="14.00">a</text>
<polygon fill="none" stroke="black" points="273.5,-235.5 273.5,-260.5 311.5,-260.5 311.5,-235.5 273.5,-235.5"/>
<text text-anchor="start" x="278.5" y="-244.3" font-family="Arial" font-size="14.00">VAR</text>
<polygon fill="none" stroke="black" points="311.5,-235.5 311.5,-260.5 382.5,-260.5 382.5,-235.5 311.5,-235.5"/>
<text text-anchor="start" x="316.5" y="-244.3" font-family="Arial" font-size="14.00">INTEGER</text>
<polygon fill="none" stroke="black" points="229.5,-210.5 229.5,-235.5 273.5,-235.5 273.5,-210.5 229.5,-210.5"/>
<text text-anchor="start" x="247.5" y="-219.3" font-family="Arial" font-size="14.00">d</text>
<polygon fill="none" stroke="black" points="273.5,-210.5 273.5,-235.5 311.5,-235.5 311.5,-210.5 273.5,-210.5"/>
<text text-anchor="start" x="278.5" y="-219.3" font-family="Arial" font-size="14.00">VAR</text>
<polygon fill="none" stroke="black" points="311.5,-210.5 311.5,-235.5 382.5,-235.5 382.5,-210.5 311.5,-210.5"/>
<text text-anchor="start" x="316.5" y="-219.3" font-family="Arial" font-size="14.00">INTEGER</text>
<polygon fill="none" stroke="black" points="229.5,-185.5 229.5,-210.5 273.5,-210.5 273.5,-185.5 229.5,-185.5"/>
<text text-anchor="start" x="247.5" y="-194.3" font-family="Arial" font-size="14.00">b</text>
<polygon fill="none" stroke="black" points="273.5,-185.5 273.5,-210.5 311.5,-210.5 311.5,-185.5 273.5,-185.5"/>
<text text-anchor="start" x="278.5" y="-194.3" font-family="Arial" font-size="14.00">VAR</text>
<polygon fill="none" stroke="black" points="311.5,-185.5 311.5,-210.5 382.5,-210.5 382.5,-185.5 311.5,-185.5"/>
<text text-anchor="start" x="329" y="-194.3" font-family="Arial" font-size="14.00">REAL</text>
<polygon fill="none" stroke="black" points="229.5,-160.5 229.5,-185.5 273.5,-185.5 273.5,-160.5 229.5,-160.5"/>
<text text-anchor="start" x="239" y="-169.3" font-family="Arial" font-size="14.00">size</text>
<polygon fill="none" stroke="black" points="273.5,-160.5 273.5,-185.5 311.5,-185.5 311.5,-160.5 273.5,-160.5"/>
<text text-anchor="start" x="278.5" y="-169.3" font-family="Arial" font-size="14.00">VAR</text>
<polygon fill="none" stroke="black" points="311.5,-160.5 311.5,-185.5 382.5,-185.5 382.5,-160.5 311.5,-160.5"/>
<text text-anchor="start" x="321" y="-169.3" font-family="Arial" font-size="14.00">STRING</text>
<polygon fill="none" stroke="black" points="229.5,-135.5 229.5,-160.5 273.5,-160.5 273.5,-135.5 229.5,-135.5"/>
<text text-anchor="start" x="234.5" y="-144.3" font-family="Arial" font-size="14.00">result</text>
<polygon fill="none" stroke="black" points="273.5,-135.5 273.5,-160.5 311.5,-160.5 311.5,-135.5 273.5,-135.5"/>
<text text-anchor="start" x="278.5" y="-144.3" font-family="Arial" font-size="14.00">VAR</text>
<polygon fill="none" stroke="black" points="311.5,-135.5 311.5,-160.5 382.5,-160.5 382.5,-135.5 311.5,-135.5"/>
<text text-anchor="start" x="329" y="-144.3" font-family="Arial" font-size="14.00">REAL</text>
</g>
<!-- table1&#45;&gt;table4 -->
<g id="edge2" class="edge">
<title>table1&#45;&gt;table4</title>
<path fill="none" stroke="black" d="M305.5,-362.8C305.5,-342.97 305.5,-320.87 305.5,-299.81"/>
<polygon fill="black" stroke="black" points="309,-299.58 305.5,-289.58 302,-299.58 309,-299.58"/>
</g>
<!-- table8 -->
<g id="node7" class="node">
<title>table8</title>
<polygon fill="none" stroke="black" points="416.5,-297.5 416.5,-322.5 583.5,-322.5 583.5,-297.5 416.5,-297.5"/>
<text text-anchor="start" x="452" y="-307.3" font-family="Arial" font-weight="bold" font-size="14.00">main [ProcOP]</text>
<polygon fill="none" stroke="black" points="416.5,-272.5 416.5,-297.5 474.5,-297.5 474.5,-272.5 416.5,-272.5"/>
<text text-anchor="start" x="434.5" y="-281.3" font-family="Arial" font-size="14.00">ans</text>
<polygon fill="none" stroke="black" points="474.5,-272.5 474.5,-297.5 512.5,-297.5 512.5,-272.5 474.5,-272.5"/>
<text text-anchor="start" x="479.5" y="-281.3" font-family="Arial" font-size="14.00">VAR</text>
<polygon fill="none" stroke="black" points="512.5,-272.5 512.5,-297.5 583.5,-297.5 583.5,-272.5 512.5,-272.5"/>
<text text-anchor="start" x="522" y="-281.3" font-family="Arial" font-size="14.00">STRING</text>
<polygon fill="none" stroke="black" points="416.5,-247.5 416.5,-272.5 474.5,-272.5 474.5,-247.5 416.5,-247.5"/>
<text text-anchor="start" x="441.5" y="-256.3" font-family="Arial" font-size="14.00">a</text>
<polygon fill="none" stroke="black" points="474.5,-247.5 474.5,-272.5 512.5,-272.5 512.5,-247.5 474.5,-247.5"/>
<text text-anchor="start" x="479.5" y="-256.3" font-family="Arial" font-size="14.00">VAR</text>
<polygon fill="none" stroke="black" points="512.5,-247.5 512.5,-272.5 583.5,-272.5 583.5,-247.5 512.5,-247.5"/>
<text text-anchor="start" x="517.5" y="-256.3" font-family="Arial" font-size="14.00">INTEGER</text>
<polygon fill="none" stroke="black" points="416.5,-222.5 416.5,-247.5 474.5,-247.5 474.5,-222.5 416.5,-222.5"/>
<text text-anchor="start" x="421.5" y="-231.3" font-family="Arial" font-size="14.00">risultato</text>
<polygon fill="none" stroke="black" points="474.5,-222.5 474.5,-247.5 512.5,-247.5 512.5,-222.5 474.5,-222.5"/>
<text text-anchor="start" x="479.5" y="-231.3" font-family="Arial" font-size="14.00">VAR</text>
<polygon fill="none" stroke="black" points="512.5,-222.5 512.5,-247.5 583.5,-247.5 583.5,-222.5 512.5,-222.5"/>
<text text-anchor="start" x="530" y="-231.3" font-family="Arial" font-size="14.00">REAL</text>
<polygon fill="none" stroke="black" points="416.5,-197.5 416.5,-222.5 474.5,-222.5 474.5,-197.5 416.5,-197.5"/>
<text text-anchor="start" x="441.5" y="-206.3" font-family="Arial" font-size="14.00">b</text>
<polygon fill="none" stroke="black" points="474.5,-197.5 474.5,-222.5 512.5,-222.5 512.5,-197.5 474.5,-197.5"/>
<text text-anchor="start" x="479.5" y="-206.3" font-family="Arial" font-size="14.00">VAR</text>
<polygon fill="none" stroke="black" points="512.5,-197.5 512.5,-222.5 583.5,-222.5 583.5,-197.5 512.5,-197.5"/>
<text text-anchor="start" x="530" y="-206.3" font-family="Arial" font-size="14.00">REAL</text>
<polygon fill="none" stroke="black" points="416.5,-172.5 416.5,-197.5 474.5,-197.5 474.5,-172.5 416.5,-172.5"/>
<text text-anchor="start" x="427" y="-181.3" font-family="Arial" font-size="14.00">valore</text>
<polygon fill="none" stroke="black" points="474.5,-172.5 474.5,-197.5 512.5,-197.5 512.5,-172.5 474.5,-172.5"/>
<text text-anchor="start" x="479.5" y="-181.3" font-family="Arial" font-size="14.00">VAR</text>
<polygon fill="none" stroke="black" points="512.5,-172.5 512.5,-197.5 583.5,-197.5 583.5,-172.5 512.5,-172.5"/>
<text text-anchor="start" x="522" y="-181.3" font-family="Arial" font-size="14.00">STRING</text>
<polygon fill="none" stroke="black" points="416.5,-147.5 416.5,-172.5 474.5,-172.5 474.5,-147.5 416.5,-147.5"/>
<text text-anchor="start" x="442" y="-156.3" font-family="Arial" font-size="14.00">x</text>
<polygon fill="none" stroke="black" points="474.5,-147.5 474.5,-172.5 512.5,-172.5 512.5,-147.5 474.5,-147.5"/>
<text text-anchor="start" x="479.5" y="-156.3" font-family="Arial" font-size="14.00">VAR</text>
<polygon fill="none" stroke="black" points="512.5,-147.5 512.5,-172.5 583.5,-172.5 583.5,-147.5 512.5,-147.5"/>
<text text-anchor="start" x="517.5" y="-156.3" font-family="Arial" font-size="14.00">INTEGER</text>
<polygon fill="none" stroke="black" points="416.5,-122.5 416.5,-147.5 474.5,-147.5 474.5,-122.5 416.5,-122.5"/>
<text text-anchor="start" x="429" y="-131.3" font-family="Arial" font-size="14.00">taglia</text>
<polygon fill="none" stroke="black" points="474.5,-122.5 474.5,-147.5 512.5,-147.5 512.5,-122.5 474.5,-122.5"/>
<text text-anchor="start" x="479.5" y="-131.3" font-family="Arial" font-size="14.00">VAR</text>
<polygon fill="none" stroke="black" points="512.5,-122.5 512.5,-147.5 583.5,-147.5 583.5,-122.5 512.5,-122.5"/>
<text text-anchor="start" x="522" y="-131.3" font-family="Arial" font-size="14.00">STRING</text>
<polygon fill="none" stroke="black" points="416.5,-97.5 416.5,-122.5 474.5,-122.5 474.5,-97.5 416.5,-97.5"/>
<text text-anchor="start" x="430.5" y="-106.3" font-family="Arial" font-size="14.00">ans1</text>
<polygon fill="none" stroke="black" points="474.5,-97.5 474.5,-122.5 512.5,-122.5 512.5,-97.5 474.5,-97.5"/>
<text text-anchor="start" x="479.5" y="-106.3" font-family="Arial" font-size="14.00">VAR</text>
<polygon fill="none" stroke="black" points="512.5,-97.5 512.5,-122.5 583.5,-122.5 583.5,-97.5 512.5,-97.5"/>
<text text-anchor="start" x="522" y="-106.3" font-family="Arial" font-size="14.00">STRING</text>
</g>
<!-- table1&#45;&gt;table8 -->
<g id="edge6" class="edge">
<title>table1&#45;&gt;table8</title>
<path fill="none" stroke="black" d="M367.01,-362.73C377.9,-350.9 389.09,-338.63 399.5,-327 400.01,-326.43 400.53,-325.85 401.05,-325.27"/>
<polygon fill="black" stroke="black" points="403.78,-327.47 407.82,-317.67 398.55,-322.81 403.78,-327.47"/>
</g>
<!-- table5 -->
<g id="node4" class="node">
<title>table5</title>
<polygon fill="none" stroke="black" points="51.5,-29 51.5,-54 198.5,-54 198.5,-29 51.5,-29"/>
<text text-anchor="start" x="104" y="-38.8" font-family="Arial" font-weight="bold" font-size="14.00"> [IfOP]</text>
<polygon fill="none" stroke="black" points="51.5,-4 51.5,-29 98.5,-29 98.5,-4 51.5,-4"/>
<text text-anchor="start" x="56.5" y="-12.8" font-family="Arial" font-size="14.00">valore</text>
<polygon fill="none" stroke="black" points="98.5,-4 98.5,-29 136.5,-29 136.5,-4 98.5,-4"/>
<text text-anchor="start" x="103.5" y="-12.8" font-family="Arial" font-size="14.00">VAR</text>
<polygon fill="none" stroke="black" points="136.5,-4 136.5,-29 198.5,-29 198.5,-4 136.5,-4"/>
<text text-anchor="start" x="141.5" y="-12.8" font-family="Arial" font-size="14.00">STRING</text>
</g>
<!-- table4&#45;&gt;table5 -->
<g id="edge3" class="edge">
<title>table4&#45;&gt;table5</title>
<path fill="none" stroke="black" d="M247.17,-131.22C236.21,-118.26 224.43,-105.36 212.5,-94 201.49,-83.52 188.72,-73.31 176.37,-64.23"/>
<polygon fill="black" stroke="black" points="178.07,-61.15 167.91,-58.14 173.98,-66.82 178.07,-61.15"/>
</g>
<!-- table6 -->
<g id="node5" class="node">
<title>table6</title>
<polygon fill="none" stroke="black" points="232.5,-29 232.5,-54 379.5,-54 379.5,-29 232.5,-29"/>
<text text-anchor="start" x="278.5" y="-38.8" font-family="Arial" font-weight="bold" font-size="14.00"> [ElifOP]</text>
<polygon fill="none" stroke="black" points="232.5,-4 232.5,-29 279.5,-29 279.5,-4 232.5,-4"/>
<text text-anchor="start" x="237.5" y="-12.8" font-family="Arial" font-size="14.00">valore</text>
<polygon fill="none" stroke="black" points="279.5,-4 279.5,-29 317.5,-29 317.5,-4 279.5,-4"/>
<text text-anchor="start" x="284.5" y="-12.8" font-family="Arial" font-size="14.00">VAR</text>
<polygon fill="none" stroke="black" points="317.5,-4 317.5,-29 379.5,-29 379.5,-4 317.5,-4"/>
<text text-anchor="start" x="322.5" y="-12.8" font-family="Arial" font-size="14.00">STRING</text>
</g>
<!-- table4&#45;&gt;table6 -->
<g id="edge4" class="edge">
<title>table4&#45;&gt;table6</title>
<path fill="none" stroke="black" d="M305.5,-131.29C305.5,-109.39 305.5,-86.56 305.5,-68.13"/>
<polygon fill="black" stroke="black" points="309,-68.1 305.5,-58.1 302,-68.1 309,-68.1"/>
</g>
<!-- table7 -->
<g id="node6" class="node">
<title>table7</title>
<polygon fill="none" stroke="black" points="413.5,-29 413.5,-54 560.5,-54 560.5,-29 413.5,-29"/>
<text text-anchor="start" x="456.5" y="-38.8" font-family="Arial" font-weight="bold" font-size="14.00"> [ElseOP]</text>
<polygon fill="none" stroke="black" points="413.5,-4 413.5,-29 460.5,-29 460.5,-4 413.5,-4"/>
<text text-anchor="start" x="418.5" y="-12.8" font-family="Arial" font-size="14.00">valore</text>
<polygon fill="none" stroke="black" points="460.5,-4 460.5,-29 498.5,-29 498.5,-4 460.5,-4"/>
<text text-anchor="start" x="465.5" y="-12.8" font-family="Arial" font-size="14.00">VAR</text>
<polygon fill="none" stroke="black" points="498.5,-4 498.5,-29 560.5,-29 560.5,-4 498.5,-4"/>
<text text-anchor="start" x="503.5" y="-12.8" font-family="Arial" font-size="14.00">STRING</text>
</g>
<!-- table4&#45;&gt;table7 -->
<g id="edge5" class="edge">
<title>table4&#45;&gt;table7</title>
<path fill="none" stroke="black" d="M364.59,-131.3C375.65,-118.33 387.52,-105.41 399.5,-94 410.42,-83.6 423.07,-73.42 435.28,-64.34"/>
<polygon fill="black" stroke="black" points="437.62,-66.96 443.64,-58.24 433.5,-61.31 437.62,-66.96"/>
</g>
</g>
</svg>
