<?xml version="1.0" encoding="UTF-8" standalone="no"?>
<!DOCTYPE svg PUBLIC "-//W3C//DTD SVG 1.1//EN"
 "http://www.w3.org/Graphics/SVG/1.1/DTD/svg11.dtd">
<!-- Generated by graphviz version 9.0.0 (20230911.1827)
 -->
<!-- Title: g Pages: 1 -->
<svg width="651pt" height="520pt"
 viewBox="0.00 0.00 651.00 520.00" xmlns="http://www.w3.org/2000/svg" xmlns:xlink="http://www.w3.org/1999/xlink">
<g id="graph0" class="graph" transform="scale(1 1) rotate(0) translate(4 516)">
<title>g</title>
<polygon fill="white" stroke="none" points="-4,4 -4,-516 647,-516 647,4 -4,4"/>
<!-- table1 -->
<g id="node1" class="node">
<title>table1</title>
<polygon fill="none" stroke="black" points="8,-482 8,-508 635,-508 635,-482 8,-482"/>
<text text-anchor="start" x="239" y="-490.7" font-family="Arial" font-weight="bold" font-size="14.00">GLOBALS [ProgramOP]</text>
<polygon fill="none" stroke="black" points="8,-456 8,-482 72,-482 72,-456 8,-456"/>
<text text-anchor="start" x="12.62" y="-463.7" font-family="Arial" font-size="14.00">sommac</text>
<polygon fill="none" stroke="black" points="72,-456 72,-482 124,-482 124,-456 72,-456"/>
<text text-anchor="start" x="77" y="-463.7" font-family="Arial" font-size="14.00">PROC</text>
<polygon fill="none" stroke="black" points="124,-456 124,-482 635,-482 635,-456 124,-456"/>
<text text-anchor="start" x="128.62" y="-463.7" font-family="Arial" font-size="14.00">INOUT:INTEGER, INOUT:INTEGER, INOUT:REAL, OUT:STRING, OUT:REAL</text>
<polygon fill="none" stroke="black" points="8,-430 8,-456 72,-456 72,-430 8,-430"/>
<text text-anchor="start" x="16.75" y="-437.7" font-family="Arial" font-size="14.00">stampa</text>
<polygon fill="none" stroke="black" points="72,-430 72,-456 124,-456 124,-430 72,-430"/>
<text text-anchor="start" x="83.75" y="-437.7" font-family="Arial" font-size="14.00">FUN</text>
<polygon fill="none" stroke="black" points="124,-430 124,-456 635,-456 635,-430 124,-430"/>
<text text-anchor="start" x="304.88" y="-437.7" font-family="Arial" font-size="14.00">IN:STRING → STRING</text>
<polygon fill="none" stroke="black" points="8,-404 8,-430 72,-430 72,-404 8,-404"/>
<text text-anchor="start" x="36.25" y="-411.7" font-family="Arial" font-size="14.00">c</text>
<polygon fill="none" stroke="black" points="72,-404 72,-430 124,-430 124,-404 72,-404"/>
<text text-anchor="start" x="83" y="-411.7" font-family="Arial" font-size="14.00">VAR</text>
<polygon fill="none" stroke="black" points="124,-404 124,-430 635,-430 635,-404 124,-404"/>
<text text-anchor="start" x="347.25" y="-411.7" font-family="Arial" font-size="14.00">INTEGER</text>
<polygon fill="none" stroke="black" points="8,-378 8,-404 72,-404 72,-378 8,-378"/>
<text text-anchor="start" x="25" y="-385.7" font-family="Arial" font-size="14.00">main</text>
<polygon fill="none" stroke="black" points="72,-378 72,-404 124,-404 124,-378 72,-378"/>
<text text-anchor="start" x="77" y="-385.7" font-family="Arial" font-size="14.00">PROC</text>
<polygon fill="none" stroke="black" points="124,-378 124,-404 635,-404 635,-378 124,-378"/>
</g>
<!-- table2 -->
<g id="node2" class="node">
<title>table2</title>
<polygon fill="none" stroke="black" points="14.5,-230 14.5,-256 208.5,-256 208.5,-230 14.5,-230"/>
<text text-anchor="start" x="55.62" y="-238.7" font-family="Arial" font-weight="bold" font-size="14.00">stampa [FunOP]</text>
<polygon fill="none" stroke="black" points="14.5,-204 14.5,-230 94.5,-230 94.5,-204 14.5,-204"/>
<text text-anchor="start" x="19.25" y="-211.7" font-family="Arial" font-size="14.00">messaggio</text>
<polygon fill="none" stroke="black" points="94.5,-204 94.5,-230 134.5,-230 134.5,-204 94.5,-204"/>
<text text-anchor="start" x="99.5" y="-211.7" font-family="Arial" font-size="14.00">VAR</text>
<polygon fill="none" stroke="black" points="134.5,-204 134.5,-230 208.5,-230 208.5,-204 134.5,-204"/>
<text text-anchor="start" x="144.12" y="-211.7" font-family="Arial" font-size="14.00">STRING</text>
<polygon fill="none" stroke="black" points="14.5,-178 14.5,-204 94.5,-204 94.5,-178 14.5,-178"/>
<text text-anchor="start" x="53" y="-185.7" font-family="Arial" font-size="14.00">i</text>
<polygon fill="none" stroke="black" points="94.5,-178 94.5,-204 134.5,-204 134.5,-178 94.5,-178"/>
<text text-anchor="start" x="99.5" y="-185.7" font-family="Arial" font-size="14.00">VAR</text>
<polygon fill="none" stroke="black" points="134.5,-178 134.5,-204 208.5,-204 208.5,-178 134.5,-178"/>
<text text-anchor="start" x="139.25" y="-185.7" font-family="Arial" font-size="14.00">INTEGER</text>
</g>
<!-- table1&#45;&gt;table2 -->
<g id="edge1" class="edge">
<title>table1&#45;&gt;table2</title>
<path fill="none" stroke="black" d="M257.92,-374.18C225.9,-340.02 187.75,-299.33 158.42,-268.05"/>
<polygon fill="black" stroke="black" points="161.21,-265.9 151.81,-261 156.1,-270.69 161.21,-265.9"/>
</g>
<!-- table4 -->
<g id="node3" class="node">
<title>table4</title>
<polygon fill="none" stroke="black" points="242.5,-269 242.5,-295 400.5,-295 400.5,-269 242.5,-269"/>
<text text-anchor="start" x="258.5" y="-277.7" font-family="Arial" font-weight="bold" font-size="14.00">sommac [ProcOP]</text>
<polygon fill="none" stroke="black" points="242.5,-243 242.5,-269 286.5,-269 286.5,-243 242.5,-243"/>
<text text-anchor="start" x="260.75" y="-250.7" font-family="Arial" font-size="14.00">a</text>
<polygon fill="none" stroke="black" points="286.5,-243 286.5,-269 326.5,-269 326.5,-243 286.5,-243"/>
<text text-anchor="start" x="291.5" y="-250.7" font-family="Arial" font-size="14.00">VAR</text>
<polygon fill="none" stroke="black" points="326.5,-243 326.5,-269 400.5,-269 400.5,-243 326.5,-243"/>
<text text-anchor="start" x="331.25" y="-250.7" font-family="Arial" font-size="14.00">INTEGER</text>
<polygon fill="none" stroke="black" points="242.5,-217 242.5,-243 286.5,-243 286.5,-217 242.5,-217"/>
<text text-anchor="start" x="260.38" y="-224.7" font-family="Arial" font-size="14.00">d</text>
<polygon fill="none" stroke="black" points="286.5,-217 286.5,-243 326.5,-243 326.5,-217 286.5,-217"/>
<text text-anchor="start" x="291.5" y="-224.7" font-family="Arial" font-size="14.00">VAR</text>
<polygon fill="none" stroke="black" points="326.5,-217 326.5,-243 400.5,-243 400.5,-217 326.5,-217"/>
<text text-anchor="start" x="331.25" y="-224.7" font-family="Arial" font-size="14.00">INTEGER</text>
<polygon fill="none" stroke="black" points="242.5,-191 242.5,-217 286.5,-217 286.5,-191 242.5,-191"/>
<text text-anchor="start" x="260.38" y="-198.7" font-family="Arial" font-size="14.00">b</text>
<polygon fill="none" stroke="black" points="286.5,-191 286.5,-217 326.5,-217 326.5,-191 286.5,-191"/>
<text text-anchor="start" x="291.5" y="-198.7" font-family="Arial" font-size="14.00">VAR</text>
<polygon fill="none" stroke="black" points="326.5,-191 326.5,-217 400.5,-217 400.5,-191 326.5,-191"/>
<text text-anchor="start" x="344.38" y="-198.7" font-family="Arial" font-size="14.00">REAL</text>
<polygon fill="none" stroke="black" points="242.5,-165 242.5,-191 286.5,-191 286.5,-165 242.5,-165"/>
<text text-anchor="start" x="251.75" y="-172.7" font-family="Arial" font-size="14.00">size</text>
<polygon fill="none" stroke="black" points="286.5,-165 286.5,-191 326.5,-191 326.5,-165 286.5,-165"/>
<text text-anchor="start" x="291.5" y="-172.7" font-family="Arial" font-size="14.00">VAR</text>
<polygon fill="none" stroke="black" points="326.5,-165 326.5,-191 400.5,-191 400.5,-165 326.5,-165"/>
<text text-anchor="start" x="336.12" y="-172.7" font-family="Arial" font-size="14.00">STRING</text>
<polygon fill="none" stroke="black" points="242.5,-139 242.5,-165 286.5,-165 286.5,-139 242.5,-139"/>
<text text-anchor="start" x="247.25" y="-146.7" font-family="Arial" font-size="14.00">result</text>
<polygon fill="none" stroke="black" points="286.5,-139 286.5,-165 326.5,-165 326.5,-139 286.5,-139"/>
<text text-anchor="start" x="291.5" y="-146.7" font-family="Arial" font-size="14.00">VAR</text>
<polygon fill="none" stroke="black" points="326.5,-139 326.5,-165 400.5,-165 400.5,-139 326.5,-139"/>
<text text-anchor="start" x="344.38" y="-146.7" font-family="Arial" font-size="14.00">REAL</text>
</g>
<!-- table1&#45;&gt;table4 -->
<g id="edge2" class="edge">
<title>table1&#45;&gt;table4</title>
<path fill="none" stroke="black" d="M321.5,-374.18C321.5,-354.1 321.5,-331.76 321.5,-310.4"/>
<polygon fill="black" stroke="black" points="325,-310.51 321.5,-300.51 318,-310.51 325,-310.51"/>
</g>
<!-- table8 -->
<g id="node7" class="node">
<title>table8</title>
<polygon fill="none" stroke="black" points="434.5,-308 434.5,-334 606.5,-334 606.5,-308 434.5,-308"/>
<text text-anchor="start" x="470.25" y="-316.7" font-family="Arial" font-weight="bold" font-size="14.00">main [ProcOP]</text>
<polygon fill="none" stroke="black" points="434.5,-282 434.5,-308 492.5,-308 492.5,-282 434.5,-282"/>
<text text-anchor="start" x="452.25" y="-289.7" font-family="Arial" font-size="14.00">ans</text>
<polygon fill="none" stroke="black" points="492.5,-282 492.5,-308 532.5,-308 532.5,-282 492.5,-282"/>
<text text-anchor="start" x="497.5" y="-289.7" font-family="Arial" font-size="14.00">VAR</text>
<polygon fill="none" stroke="black" points="532.5,-282 532.5,-308 606.5,-308 606.5,-282 532.5,-282"/>
<text text-anchor="start" x="542.12" y="-289.7" font-family="Arial" font-size="14.00">STRING</text>
<polygon fill="none" stroke="black" points="434.5,-256 434.5,-282 492.5,-282 492.5,-256 434.5,-256"/>
<text text-anchor="start" x="459.75" y="-263.7" font-family="Arial" font-size="14.00">a</text>
<polygon fill="none" stroke="black" points="492.5,-256 492.5,-282 532.5,-282 532.5,-256 492.5,-256"/>
<text text-anchor="start" x="497.5" y="-263.7" font-family="Arial" font-size="14.00">VAR</text>
<polygon fill="none" stroke="black" points="532.5,-256 532.5,-282 606.5,-282 606.5,-256 532.5,-256"/>
<text text-anchor="start" x="537.25" y="-263.7" font-family="Arial" font-size="14.00">INTEGER</text>
<polygon fill="none" stroke="black" points="434.5,-230 434.5,-256 492.5,-256 492.5,-230 434.5,-230"/>
<text text-anchor="start" x="439.12" y="-237.7" font-family="Arial" font-size="14.00">risultato</text>
<polygon fill="none" stroke="black" points="492.5,-230 492.5,-256 532.5,-256 532.5,-230 492.5,-230"/>
<text text-anchor="start" x="497.5" y="-237.7" font-family="Arial" font-size="14.00">VAR</text>
<polygon fill="none" stroke="black" points="532.5,-230 532.5,-256 606.5,-256 606.5,-230 532.5,-230"/>
<text text-anchor="start" x="537.25" y="-237.7" font-family="Arial" font-size="14.00">INTEGER</text>
<polygon fill="none" stroke="black" points="434.5,-204 434.5,-230 492.5,-230 492.5,-204 434.5,-204"/>
<text text-anchor="start" x="459.38" y="-211.7" font-family="Arial" font-size="14.00">b</text>
<polygon fill="none" stroke="black" points="492.5,-204 492.5,-230 532.5,-230 532.5,-204 492.5,-204"/>
<text text-anchor="start" x="497.5" y="-211.7" font-family="Arial" font-size="14.00">VAR</text>
<polygon fill="none" stroke="black" points="532.5,-204 532.5,-230 606.5,-230 606.5,-204 532.5,-204"/>
<text text-anchor="start" x="550.38" y="-211.7" font-family="Arial" font-size="14.00">REAL</text>
<polygon fill="none" stroke="black" points="434.5,-178 434.5,-204 492.5,-204 492.5,-178 434.5,-178"/>
<text text-anchor="start" x="444.38" y="-185.7" font-family="Arial" font-size="14.00">valore</text>
<polygon fill="none" stroke="black" points="492.5,-178 492.5,-204 532.5,-204 532.5,-178 492.5,-178"/>
<text text-anchor="start" x="497.5" y="-185.7" font-family="Arial" font-size="14.00">VAR</text>
<polygon fill="none" stroke="black" points="532.5,-178 532.5,-204 606.5,-204 606.5,-178 532.5,-178"/>
<text text-anchor="start" x="542.12" y="-185.7" font-family="Arial" font-size="14.00">STRING</text>
<polygon fill="none" stroke="black" points="434.5,-152 434.5,-178 492.5,-178 492.5,-152 434.5,-152"/>
<text text-anchor="start" x="460.12" y="-159.7" font-family="Arial" font-size="14.00">x</text>
<polygon fill="none" stroke="black" points="492.5,-152 492.5,-178 532.5,-178 532.5,-152 492.5,-152"/>
<text text-anchor="start" x="497.5" y="-159.7" font-family="Arial" font-size="14.00">VAR</text>
<polygon fill="none" stroke="black" points="532.5,-152 532.5,-178 606.5,-178 606.5,-152 532.5,-152"/>
<text text-anchor="start" x="537.25" y="-159.7" font-family="Arial" font-size="14.00">INTEGER</text>
<polygon fill="none" stroke="black" points="434.5,-126 434.5,-152 492.5,-152 492.5,-126 434.5,-126"/>
<text text-anchor="start" x="447" y="-133.7" font-family="Arial" font-size="14.00">taglia</text>
<polygon fill="none" stroke="black" points="492.5,-126 492.5,-152 532.5,-152 532.5,-126 492.5,-126"/>
<text text-anchor="start" x="497.5" y="-133.7" font-family="Arial" font-size="14.00">VAR</text>
<polygon fill="none" stroke="black" points="532.5,-126 532.5,-152 606.5,-152 606.5,-126 532.5,-126"/>
<text text-anchor="start" x="542.12" y="-133.7" font-family="Arial" font-size="14.00">STRING</text>
<polygon fill="none" stroke="black" points="434.5,-100 434.5,-126 492.5,-126 492.5,-100 434.5,-100"/>
<text text-anchor="start" x="448.12" y="-107.7" font-family="Arial" font-size="14.00">ans1</text>
<polygon fill="none" stroke="black" points="492.5,-100 492.5,-126 532.5,-126 532.5,-100 492.5,-100"/>
<text text-anchor="start" x="497.5" y="-107.7" font-family="Arial" font-size="14.00">VAR</text>
<polygon fill="none" stroke="black" points="532.5,-100 532.5,-126 606.5,-126 606.5,-100 532.5,-100"/>
<text text-anchor="start" x="542.12" y="-107.7" font-family="Arial" font-size="14.00">STRING</text>
</g>
<!-- table1&#45;&gt;table8 -->
<g id="edge6" class="edge">
<title>table1&#45;&gt;table8</title>
<path fill="none" stroke="black" d="M384.85,-374.07C395.82,-362.12 407.04,-349.75 417.5,-338 418.06,-337.37 418.63,-336.73 419.2,-336.09"/>
<polygon fill="black" stroke="black" points="421.63,-338.63 425.63,-328.82 416.39,-333.99 421.63,-338.63"/>
</g>
<!-- table5 -->
<g id="node4" class="node">
<title>table5</title>
<polygon fill="none" stroke="black" points="59.5,-30 59.5,-56 211.5,-56 211.5,-30 59.5,-30"/>
<text text-anchor="start" x="114.5" y="-38.7" font-family="Arial" font-weight="bold" font-size="14.00"> [IfOP]</text>
<polygon fill="none" stroke="black" points="59.5,-4 59.5,-30 107.5,-30 107.5,-4 59.5,-4"/>
<text text-anchor="start" x="64.38" y="-11.7" font-family="Arial" font-size="14.00">valore</text>
<polygon fill="none" stroke="black" points="107.5,-4 107.5,-30 147.5,-30 147.5,-4 107.5,-4"/>
<text text-anchor="start" x="112.5" y="-11.7" font-family="Arial" font-size="14.00">VAR</text>
<polygon fill="none" stroke="black" points="147.5,-4 147.5,-30 211.5,-30 211.5,-4 147.5,-4"/>
<text text-anchor="start" x="152.12" y="-11.7" font-family="Arial" font-size="14.00">STRING</text>
</g>
<!-- table4&#45;&gt;table5 -->
<g id="edge3" class="edge">
<title>table4&#45;&gt;table5</title>
<path fill="none" stroke="black" d="M261.9,-135.25C250.43,-121.58 238.06,-107.96 225.5,-96 214.6,-85.62 201.97,-75.53 189.69,-66.51"/>
<polygon fill="black" stroke="black" points="191.79,-63.71 181.63,-60.72 187.71,-69.39 191.79,-63.71"/>
</g>
<!-- table6 -->
<g id="node5" class="node">
<title>table6</title>
<polygon fill="none" stroke="black" points="245.5,-30 245.5,-56 397.5,-56 397.5,-30 245.5,-30"/>
<text text-anchor="start" x="293.75" y="-38.7" font-family="Arial" font-weight="bold" font-size="14.00"> [ElifOP]</text>
<polygon fill="none" stroke="black" points="245.5,-4 245.5,-30 293.5,-30 293.5,-4 245.5,-4"/>
<text text-anchor="start" x="250.38" y="-11.7" font-family="Arial" font-size="14.00">valore</text>
<polygon fill="none" stroke="black" points="293.5,-4 293.5,-30 333.5,-30 333.5,-4 293.5,-4"/>
<text text-anchor="start" x="298.5" y="-11.7" font-family="Arial" font-size="14.00">VAR</text>
<polygon fill="none" stroke="black" points="333.5,-4 333.5,-30 397.5,-30 397.5,-4 333.5,-4"/>
<text text-anchor="start" x="338.12" y="-11.7" font-family="Arial" font-size="14.00">STRING</text>
</g>
<!-- table4&#45;&gt;table6 -->
<g id="edge4" class="edge">
<title>table4&#45;&gt;table6</title>
<path fill="none" stroke="black" d="M321.5,-135.13C321.5,-113.01 321.5,-89.99 321.5,-71.24"/>
<polygon fill="black" stroke="black" points="325,-71.38 321.5,-61.38 318,-71.38 325,-71.38"/>
</g>
<!-- table7 -->
<g id="node6" class="node">
<title>table7</title>
<polygon fill="none" stroke="black" points="431.5,-30 431.5,-56 583.5,-56 583.5,-30 431.5,-30"/>
<text text-anchor="start" x="475.62" y="-38.7" font-family="Arial" font-weight="bold" font-size="14.00"> [ElseOP]</text>
<polygon fill="none" stroke="black" points="431.5,-4 431.5,-30 479.5,-30 479.5,-4 431.5,-4"/>
<text text-anchor="start" x="436.38" y="-11.7" font-family="Arial" font-size="14.00">valore</text>
<polygon fill="none" stroke="black" points="479.5,-4 479.5,-30 519.5,-30 519.5,-4 479.5,-4"/>
<text text-anchor="start" x="484.5" y="-11.7" font-family="Arial" font-size="14.00">VAR</text>
<polygon fill="none" stroke="black" points="519.5,-4 519.5,-30 583.5,-30 583.5,-4 519.5,-4"/>
<text text-anchor="start" x="524.12" y="-11.7" font-family="Arial" font-size="14.00">STRING</text>
</g>
<!-- table4&#45;&gt;table7 -->
<g id="edge5" class="edge">
<title>table4&#45;&gt;table7</title>
<path fill="none" stroke="black" d="M381.1,-135.25C392.57,-121.58 404.94,-107.96 417.5,-96 428.4,-85.62 441.03,-75.53 453.31,-66.51"/>
<polygon fill="black" stroke="black" points="455.29,-69.39 461.37,-60.72 451.21,-63.71 455.29,-69.39"/>
</g>
</g>
</svg>
