<?xml version="1.0" encoding="UTF-8" standalone="no"?>
<!DOCTYPE svg PUBLIC "-//W3C//DTD SVG 1.1//EN"
 "http://www.w3.org/Graphics/SVG/1.1/DTD/svg11.dtd">
<!-- Generated by graphviz version 9.0.0 (20230911.1827)
 -->
<!-- Title: g Pages: 1 -->
<svg width="1493pt" height="580pt"
 viewBox="0.00 0.00 1492.50 580.00" xmlns="http://www.w3.org/2000/svg" xmlns:xlink="http://www.w3.org/1999/xlink">
<g id="graph0" class="graph" transform="scale(1 1) rotate(0) translate(4 576)">
<title>g</title>
<polygon fill="white" stroke="none" points="-4,4 -4,-576 1488.5,-576 1488.5,4 -4,4"/>
<!-- table1 -->
<g id="node1" class="node">
<title>table1</title>
<polygon fill="none" stroke="black" points="577.5,-542 577.5,-568 959.5,-568 959.5,-542 577.5,-542"/>
<text text-anchor="start" x="686" y="-550.7" font-family="Arial" font-weight="bold" font-size="14.00">GLOBALS [ProgramOP]</text>
<polygon fill="none" stroke="black" points="577.5,-516 577.5,-542 638.5,-542 638.5,-516 577.5,-516"/>
<text text-anchor="start" x="593" y="-523.7" font-family="Arial" font-size="14.00">main</text>
<polygon fill="none" stroke="black" points="638.5,-516 638.5,-542 690.5,-542 690.5,-516 638.5,-516"/>
<text text-anchor="start" x="643.5" y="-523.7" font-family="Arial" font-size="14.00">PROC</text>
<polygon fill="none" stroke="black" points="690.5,-516 690.5,-542 959.5,-542 959.5,-516 690.5,-516"/>
<polygon fill="none" stroke="black" points="577.5,-490 577.5,-516 638.5,-516 638.5,-490 577.5,-490"/>
<text text-anchor="start" x="595.62" y="-497.7" font-family="Arial" font-size="14.00">rdiff</text>
<polygon fill="none" stroke="black" points="638.5,-490 638.5,-516 690.5,-516 690.5,-490 638.5,-490"/>
<text text-anchor="start" x="643.5" y="-497.7" font-family="Arial" font-size="14.00">PROC</text>
<polygon fill="none" stroke="black" points="690.5,-490 690.5,-516 959.5,-516 959.5,-490 690.5,-490"/>
<text text-anchor="start" x="695.25" y="-497.7" font-family="Arial" font-size="14.00">INOUT:REAL, INOUT:REAL, OUT:REAL</text>
<polygon fill="none" stroke="black" points="577.5,-464 577.5,-490 638.5,-490 638.5,-464 577.5,-464"/>
<text text-anchor="start" x="582.88" y="-471.7" font-family="Arial" font-size="14.00">isomma</text>
<polygon fill="none" stroke="black" points="638.5,-464 638.5,-490 690.5,-490 690.5,-464 638.5,-464"/>
<text text-anchor="start" x="650.25" y="-471.7" font-family="Arial" font-size="14.00">FUN</text>
<polygon fill="none" stroke="black" points="690.5,-464 690.5,-490 959.5,-490 959.5,-464 690.5,-464"/>
<text text-anchor="start" x="695.63" y="-471.7" font-family="Arial" font-size="14.00">IN:INTEGER, IN:INTEGER → INTEGER</text>
<polygon fill="none" stroke="black" points="577.5,-438 577.5,-464 638.5,-464 638.5,-438 577.5,-438"/>
<text text-anchor="start" x="596.38" y="-445.7" font-family="Arial" font-size="14.00">idiff</text>
<polygon fill="none" stroke="black" points="638.5,-438 638.5,-464 690.5,-464 690.5,-438 638.5,-438"/>
<text text-anchor="start" x="650.25" y="-445.7" font-family="Arial" font-size="14.00">FUN</text>
<polygon fill="none" stroke="black" points="690.5,-438 690.5,-464 959.5,-464 959.5,-438 690.5,-438"/>
<text text-anchor="start" x="695.63" y="-445.7" font-family="Arial" font-size="14.00">IN:INTEGER, IN:INTEGER → INTEGER</text>
<polygon fill="none" stroke="black" points="577.5,-412 577.5,-438 638.5,-438 638.5,-412 577.5,-412"/>
<text text-anchor="start" x="595.25" y="-419.7" font-family="Arial" font-size="14.00">imul</text>
<polygon fill="none" stroke="black" points="638.5,-412 638.5,-438 690.5,-438 690.5,-412 638.5,-412"/>
<text text-anchor="start" x="650.25" y="-419.7" font-family="Arial" font-size="14.00">FUN</text>
<polygon fill="none" stroke="black" points="690.5,-412 690.5,-438 959.5,-438 959.5,-412 690.5,-412"/>
<text text-anchor="start" x="695.63" y="-419.7" font-family="Arial" font-size="14.00">IN:INTEGER, IN:INTEGER → INTEGER</text>
<polygon fill="none" stroke="black" points="577.5,-386 577.5,-412 638.5,-412 638.5,-386 577.5,-386"/>
<text text-anchor="start" x="597.5" y="-393.7" font-family="Arial" font-size="14.00">idiv</text>
<polygon fill="none" stroke="black" points="638.5,-386 638.5,-412 690.5,-412 690.5,-386 638.5,-386"/>
<text text-anchor="start" x="650.25" y="-393.7" font-family="Arial" font-size="14.00">FUN</text>
<polygon fill="none" stroke="black" points="690.5,-386 690.5,-412 959.5,-412 959.5,-386 690.5,-386"/>
<text text-anchor="start" x="695.63" y="-393.7" font-family="Arial" font-size="14.00">IN:INTEGER, IN:INTEGER → INTEGER</text>
<polygon fill="none" stroke="black" points="577.5,-360 577.5,-386 638.5,-386 638.5,-360 577.5,-360"/>
<text text-anchor="start" x="582.12" y="-367.7" font-family="Arial" font-size="14.00">rsomma</text>
<polygon fill="none" stroke="black" points="638.5,-360 638.5,-386 690.5,-386 690.5,-360 638.5,-360"/>
<text text-anchor="start" x="643.5" y="-367.7" font-family="Arial" font-size="14.00">PROC</text>
<polygon fill="none" stroke="black" points="690.5,-360 690.5,-386 959.5,-386 959.5,-360 690.5,-360"/>
<text text-anchor="start" x="695.25" y="-367.7" font-family="Arial" font-size="14.00">INOUT:REAL, INOUT:REAL, OUT:REAL</text>
<polygon fill="none" stroke="black" points="577.5,-334 577.5,-360 638.5,-360 638.5,-334 577.5,-334"/>
<text text-anchor="start" x="594.5" y="-341.7" font-family="Arial" font-size="14.00">rmul</text>
<polygon fill="none" stroke="black" points="638.5,-334 638.5,-360 690.5,-360 690.5,-334 638.5,-334"/>
<text text-anchor="start" x="643.5" y="-341.7" font-family="Arial" font-size="14.00">PROC</text>
<polygon fill="none" stroke="black" points="690.5,-334 690.5,-360 959.5,-360 959.5,-334 690.5,-334"/>
<text text-anchor="start" x="695.25" y="-341.7" font-family="Arial" font-size="14.00">INOUT:REAL, INOUT:REAL, OUT:REAL</text>
<polygon fill="none" stroke="black" points="577.5,-308 577.5,-334 638.5,-334 638.5,-308 577.5,-308"/>
<text text-anchor="start" x="596.75" y="-315.7" font-family="Arial" font-size="14.00">rdiv</text>
<polygon fill="none" stroke="black" points="638.5,-308 638.5,-334 690.5,-334 690.5,-308 638.5,-308"/>
<text text-anchor="start" x="643.5" y="-315.7" font-family="Arial" font-size="14.00">PROC</text>
<polygon fill="none" stroke="black" points="690.5,-308 690.5,-334 959.5,-334 959.5,-308 690.5,-308"/>
<text text-anchor="start" x="695.25" y="-315.7" font-family="Arial" font-size="14.00">INOUT:REAL, INOUT:REAL, OUT:REAL</text>
</g>
<!-- table2 -->
<g id="node2" class="node">
<title>table2</title>
<polygon fill="none" stroke="black" points="8,-147 8,-173 143,-173 143,-147 8,-147"/>
<text text-anchor="start" x="17.75" y="-155.7" font-family="Arial" font-weight="bold" font-size="14.00">isomma [FunOP]</text>
<polygon fill="none" stroke="black" points="8,-121 8,-147 29,-147 29,-121 8,-121"/>
<text text-anchor="start" x="12.88" y="-128.7" font-family="Arial" font-size="14.00">i1</text>
<polygon fill="none" stroke="black" points="29,-121 29,-147 69,-147 69,-121 29,-121"/>
<text text-anchor="start" x="34" y="-128.7" font-family="Arial" font-size="14.00">VAR</text>
<polygon fill="none" stroke="black" points="69,-121 69,-147 143,-147 143,-121 69,-121"/>
<text text-anchor="start" x="73.75" y="-128.7" font-family="Arial" font-size="14.00">INTEGER</text>
<polygon fill="none" stroke="black" points="8,-95 8,-121 29,-121 29,-95 8,-95"/>
<text text-anchor="start" x="12.88" y="-102.7" font-family="Arial" font-size="14.00">i2</text>
<polygon fill="none" stroke="black" points="29,-95 29,-121 69,-121 69,-95 29,-95"/>
<text text-anchor="start" x="34" y="-102.7" font-family="Arial" font-size="14.00">VAR</text>
<polygon fill="none" stroke="black" points="69,-95 69,-121 143,-121 143,-95 69,-95"/>
<text text-anchor="start" x="73.75" y="-102.7" font-family="Arial" font-size="14.00">INTEGER</text>
</g>
<!-- table1&#45;&gt;table2 -->
<g id="edge1" class="edge">
<title>table1&#45;&gt;table2</title>
<path fill="none" stroke="black" d="M569.7,-418.81C442.15,-398.75 278.72,-356.6 159.5,-268 131.78,-247.4 110.95,-214.69 96.96,-186.87"/>
<polygon fill="black" stroke="black" points="100.29,-185.71 92.78,-178.23 93.99,-188.76 100.29,-185.71"/>
</g>
<!-- table3 -->
<g id="node3" class="node">
<title>table3</title>
<polygon fill="none" stroke="black" points="177,-147 177,-173 312,-173 312,-147 177,-147"/>
<text text-anchor="start" x="201.38" y="-155.7" font-family="Arial" font-weight="bold" font-size="14.00">idiff [FunOP]</text>
<polygon fill="none" stroke="black" points="177,-121 177,-147 198,-147 198,-121 177,-121"/>
<text text-anchor="start" x="181.88" y="-128.7" font-family="Arial" font-size="14.00">i1</text>
<polygon fill="none" stroke="black" points="198,-121 198,-147 238,-147 238,-121 198,-121"/>
<text text-anchor="start" x="203" y="-128.7" font-family="Arial" font-size="14.00">VAR</text>
<polygon fill="none" stroke="black" points="238,-121 238,-147 312,-147 312,-121 238,-121"/>
<text text-anchor="start" x="242.75" y="-128.7" font-family="Arial" font-size="14.00">INTEGER</text>
<polygon fill="none" stroke="black" points="177,-95 177,-121 198,-121 198,-95 177,-95"/>
<text text-anchor="start" x="181.88" y="-102.7" font-family="Arial" font-size="14.00">i2</text>
<polygon fill="none" stroke="black" points="198,-95 198,-121 238,-121 238,-95 198,-95"/>
<text text-anchor="start" x="203" y="-102.7" font-family="Arial" font-size="14.00">VAR</text>
<polygon fill="none" stroke="black" points="238,-95 238,-121 312,-121 312,-95 238,-95"/>
<text text-anchor="start" x="242.75" y="-102.7" font-family="Arial" font-size="14.00">INTEGER</text>
</g>
<!-- table1&#45;&gt;table3 -->
<g id="edge2" class="edge">
<title>table1&#45;&gt;table3</title>
<path fill="none" stroke="black" d="M569.75,-390.33C488.7,-364.15 397.93,-324.97 328.5,-268 302.2,-246.42 281.6,-214.34 267.39,-187.1"/>
<polygon fill="black" stroke="black" points="270.56,-185.63 262.93,-178.28 264.32,-188.78 270.56,-185.63"/>
</g>
<!-- table4 -->
<g id="node4" class="node">
<title>table4</title>
<polygon fill="none" stroke="black" points="346,-147 346,-173 481,-173 481,-147 346,-147"/>
<text text-anchor="start" x="368.5" y="-155.7" font-family="Arial" font-weight="bold" font-size="14.00">imul [FunOP]</text>
<polygon fill="none" stroke="black" points="346,-121 346,-147 367,-147 367,-121 346,-121"/>
<text text-anchor="start" x="350.88" y="-128.7" font-family="Arial" font-size="14.00">i1</text>
<polygon fill="none" stroke="black" points="367,-121 367,-147 407,-147 407,-121 367,-121"/>
<text text-anchor="start" x="372" y="-128.7" font-family="Arial" font-size="14.00">VAR</text>
<polygon fill="none" stroke="black" points="407,-121 407,-147 481,-147 481,-121 407,-121"/>
<text text-anchor="start" x="411.75" y="-128.7" font-family="Arial" font-size="14.00">INTEGER</text>
<polygon fill="none" stroke="black" points="346,-95 346,-121 367,-121 367,-95 346,-95"/>
<text text-anchor="start" x="350.88" y="-102.7" font-family="Arial" font-size="14.00">i2</text>
<polygon fill="none" stroke="black" points="367,-95 367,-121 407,-121 407,-95 367,-95"/>
<text text-anchor="start" x="372" y="-102.7" font-family="Arial" font-size="14.00">VAR</text>
<polygon fill="none" stroke="black" points="407,-95 407,-121 481,-121 481,-95 407,-95"/>
<text text-anchor="start" x="411.75" y="-102.7" font-family="Arial" font-size="14.00">INTEGER</text>
</g>
<!-- table1&#45;&gt;table4 -->
<g id="edge3" class="edge">
<title>table1&#45;&gt;table4</title>
<path fill="none" stroke="black" d="M569.65,-327.82C543.97,-309.57 519.13,-289.5 497.5,-268 473.8,-244.44 453.57,-213.01 438.9,-186.63"/>
<polygon fill="black" stroke="black" points="442.12,-185.23 434.28,-178.12 435.97,-188.57 442.12,-185.23"/>
</g>
<!-- table5 -->
<g id="node5" class="node">
<title>table5</title>
<polygon fill="none" stroke="black" points="515,-147 515,-173 650,-173 650,-147 515,-147"/>
<text text-anchor="start" x="539.75" y="-155.7" font-family="Arial" font-weight="bold" font-size="14.00">idiv [FunOP]</text>
<polygon fill="none" stroke="black" points="515,-121 515,-147 536,-147 536,-121 515,-121"/>
<text text-anchor="start" x="519.88" y="-128.7" font-family="Arial" font-size="14.00">i1</text>
<polygon fill="none" stroke="black" points="536,-121 536,-147 576,-147 576,-121 536,-121"/>
<text text-anchor="start" x="541" y="-128.7" font-family="Arial" font-size="14.00">VAR</text>
<polygon fill="none" stroke="black" points="576,-121 576,-147 650,-147 650,-121 576,-121"/>
<text text-anchor="start" x="580.75" y="-128.7" font-family="Arial" font-size="14.00">INTEGER</text>
<polygon fill="none" stroke="black" points="515,-95 515,-121 536,-121 536,-95 515,-95"/>
<text text-anchor="start" x="519.88" y="-102.7" font-family="Arial" font-size="14.00">i2</text>
<polygon fill="none" stroke="black" points="536,-95 536,-121 576,-121 576,-95 536,-95"/>
<text text-anchor="start" x="541" y="-102.7" font-family="Arial" font-size="14.00">VAR</text>
<polygon fill="none" stroke="black" points="576,-95 576,-121 650,-121 650,-95 576,-95"/>
<text text-anchor="start" x="580.75" y="-102.7" font-family="Arial" font-size="14.00">INTEGER</text>
</g>
<!-- table1&#45;&gt;table5 -->
<g id="edge4" class="edge">
<title>table1&#45;&gt;table5</title>
<path fill="none" stroke="black" d="M686.65,-304.1C661.03,-262.51 634.27,-219.06 614.29,-186.62"/>
<polygon fill="black" stroke="black" points="617.34,-184.89 609.11,-178.21 611.38,-188.56 617.34,-184.89"/>
</g>
<!-- table6 -->
<g id="node6" class="node">
<title>table6</title>
<polygon fill="none" stroke="black" points="684,-238 684,-264 853,-264 853,-238 684,-238"/>
<text text-anchor="start" x="718.25" y="-246.7" font-family="Arial" font-weight="bold" font-size="14.00">main [ProcOP]</text>
<polygon fill="none" stroke="black" points="684,-212 684,-238 734,-238 734,-212 684,-212"/>
<text text-anchor="start" x="694" y="-219.7" font-family="Arial" font-size="14.00">legal</text>
<polygon fill="none" stroke="black" points="734,-212 734,-238 774,-238 774,-212 734,-212"/>
<text text-anchor="start" x="739" y="-219.7" font-family="Arial" font-size="14.00">VAR</text>
<polygon fill="none" stroke="black" points="774,-212 774,-238 853,-238 853,-212 774,-212"/>
<text text-anchor="start" x="778.62" y="-219.7" font-family="Arial" font-size="14.00">BOOLEAN</text>
<polygon fill="none" stroke="black" points="684,-186 684,-212 734,-212 734,-186 684,-186"/>
<text text-anchor="start" x="700.75" y="-193.7" font-family="Arial" font-size="14.00">op</text>
<polygon fill="none" stroke="black" points="734,-186 734,-212 774,-212 774,-186 734,-186"/>
<text text-anchor="start" x="739" y="-193.7" font-family="Arial" font-size="14.00">VAR</text>
<polygon fill="none" stroke="black" points="774,-186 774,-212 853,-212 853,-186 774,-186"/>
<text text-anchor="start" x="781.25" y="-193.7" font-family="Arial" font-size="14.00">INTEGER</text>
<polygon fill="none" stroke="black" points="684,-160 684,-186 734,-186 734,-160 684,-160"/>
<text text-anchor="start" x="703.38" y="-167.7" font-family="Arial" font-size="14.00">i1</text>
<polygon fill="none" stroke="black" points="734,-160 734,-186 774,-186 774,-160 734,-160"/>
<text text-anchor="start" x="739" y="-167.7" font-family="Arial" font-size="14.00">VAR</text>
<polygon fill="none" stroke="black" points="774,-160 774,-186 853,-186 853,-160 774,-160"/>
<text text-anchor="start" x="781.25" y="-167.7" font-family="Arial" font-size="14.00">INTEGER</text>
<polygon fill="none" stroke="black" points="684,-134 684,-160 734,-160 734,-134 684,-134"/>
<text text-anchor="start" x="703.38" y="-141.7" font-family="Arial" font-size="14.00">i2</text>
<polygon fill="none" stroke="black" points="734,-134 734,-160 774,-160 774,-134 734,-134"/>
<text text-anchor="start" x="739" y="-141.7" font-family="Arial" font-size="14.00">VAR</text>
<polygon fill="none" stroke="black" points="774,-134 774,-160 853,-160 853,-134 774,-134"/>
<text text-anchor="start" x="781.25" y="-141.7" font-family="Arial" font-size="14.00">INTEGER</text>
<polygon fill="none" stroke="black" points="684,-108 684,-134 734,-134 734,-108 684,-108"/>
<text text-anchor="start" x="697.38" y="-115.7" font-family="Arial" font-size="14.00">ires</text>
<polygon fill="none" stroke="black" points="734,-108 734,-134 774,-134 774,-108 734,-108"/>
<text text-anchor="start" x="739" y="-115.7" font-family="Arial" font-size="14.00">VAR</text>
<polygon fill="none" stroke="black" points="774,-108 774,-134 853,-134 853,-108 774,-108"/>
<text text-anchor="start" x="781.25" y="-115.7" font-family="Arial" font-size="14.00">INTEGER</text>
<polygon fill="none" stroke="black" points="684,-82 684,-108 734,-108 734,-82 684,-82"/>
<text text-anchor="start" x="702.62" y="-89.7" font-family="Arial" font-size="14.00">r1</text>
<polygon fill="none" stroke="black" points="734,-82 734,-108 774,-108 774,-82 734,-82"/>
<text text-anchor="start" x="739" y="-89.7" font-family="Arial" font-size="14.00">VAR</text>
<polygon fill="none" stroke="black" points="774,-82 774,-108 853,-108 853,-82 774,-82"/>
<text text-anchor="start" x="794.38" y="-89.7" font-family="Arial" font-size="14.00">REAL</text>
<polygon fill="none" stroke="black" points="684,-56 684,-82 734,-82 734,-56 684,-56"/>
<text text-anchor="start" x="696.62" y="-63.7" font-family="Arial" font-size="14.00">rres</text>
<polygon fill="none" stroke="black" points="734,-56 734,-82 774,-82 774,-56 734,-56"/>
<text text-anchor="start" x="739" y="-63.7" font-family="Arial" font-size="14.00">VAR</text>
<polygon fill="none" stroke="black" points="774,-56 774,-82 853,-82 853,-56 774,-56"/>
<text text-anchor="start" x="794.38" y="-63.7" font-family="Arial" font-size="14.00">REAL</text>
<polygon fill="none" stroke="black" points="684,-30 684,-56 734,-56 734,-30 684,-30"/>
<text text-anchor="start" x="702.62" y="-37.7" font-family="Arial" font-size="14.00">r2</text>
<polygon fill="none" stroke="black" points="734,-30 734,-56 774,-56 774,-30 734,-30"/>
<text text-anchor="start" x="739" y="-37.7" font-family="Arial" font-size="14.00">VAR</text>
<polygon fill="none" stroke="black" points="774,-30 774,-56 853,-56 853,-30 774,-30"/>
<text text-anchor="start" x="794.38" y="-37.7" font-family="Arial" font-size="14.00">REAL</text>
<polygon fill="none" stroke="black" points="684,-4 684,-30 734,-30 734,-4 684,-4"/>
<text text-anchor="start" x="688.75" y="-11.7" font-family="Arial" font-size="14.00">format</text>
<polygon fill="none" stroke="black" points="734,-4 734,-30 774,-30 774,-4 734,-4"/>
<text text-anchor="start" x="739" y="-11.7" font-family="Arial" font-size="14.00">VAR</text>
<polygon fill="none" stroke="black" points="774,-4 774,-30 853,-30 853,-4 774,-4"/>
<text text-anchor="start" x="781.25" y="-11.7" font-family="Arial" font-size="14.00">INTEGER</text>
</g>
<!-- table1&#45;&gt;table6 -->
<g id="edge5" class="edge">
<title>table1&#45;&gt;table6</title>
<path fill="none" stroke="black" d="M768.5,-304.1C768.5,-295.83 768.5,-287.49 768.5,-279.17"/>
<polygon fill="black" stroke="black" points="772,-279.38 768.5,-269.38 765,-279.38 772,-279.38"/>
</g>
<!-- table28 -->
<g id="node7" class="node">
<title>table28</title>
<polygon fill="none" stroke="black" points="887,-160 887,-186 1020,-186 1020,-160 887,-160"/>
<text text-anchor="start" x="891.62" y="-168.7" font-family="Arial" font-weight="bold" font-size="14.00">rsomma [ProcOP]</text>
<polygon fill="none" stroke="black" points="887,-134 887,-160 924,-160 924,-134 887,-134"/>
<text text-anchor="start" x="895.38" y="-141.7" font-family="Arial" font-size="14.00">res</text>
<polygon fill="none" stroke="black" points="924,-134 924,-160 968,-160 968,-134 924,-134"/>
<text text-anchor="start" x="931" y="-141.7" font-family="Arial" font-size="14.00">VAR</text>
<polygon fill="none" stroke="black" points="968,-134 968,-160 1020,-160 1020,-134 968,-134"/>
<text text-anchor="start" x="974.88" y="-141.7" font-family="Arial" font-size="14.00">REAL</text>
<polygon fill="none" stroke="black" points="887,-108 887,-134 924,-134 924,-108 887,-108"/>
<text text-anchor="start" x="899.12" y="-115.7" font-family="Arial" font-size="14.00">r1</text>
<polygon fill="none" stroke="black" points="924,-108 924,-134 968,-134 968,-108 924,-108"/>
<text text-anchor="start" x="931" y="-115.7" font-family="Arial" font-size="14.00">VAR</text>
<polygon fill="none" stroke="black" points="968,-108 968,-134 1020,-134 1020,-108 968,-108"/>
<text text-anchor="start" x="974.88" y="-115.7" font-family="Arial" font-size="14.00">REAL</text>
<polygon fill="none" stroke="black" points="887,-82 887,-108 924,-108 924,-82 887,-82"/>
<text text-anchor="start" x="899.12" y="-89.7" font-family="Arial" font-size="14.00">r2</text>
<polygon fill="none" stroke="black" points="924,-82 924,-108 968,-108 968,-82 924,-82"/>
<text text-anchor="start" x="931" y="-89.7" font-family="Arial" font-size="14.00">VAR</text>
<polygon fill="none" stroke="black" points="968,-82 968,-108 1020,-108 1020,-82 968,-82"/>
<text text-anchor="start" x="974.88" y="-89.7" font-family="Arial" font-size="14.00">REAL</text>
</g>
<!-- table1&#45;&gt;table28 -->
<g id="edge6" class="edge">
<title>table1&#45;&gt;table28</title>
<path fill="none" stroke="black" d="M849.91,-304.1C872.13,-267.83 895.22,-230.15 913.94,-199.58"/>
<polygon fill="black" stroke="black" points="916.83,-201.57 919.07,-191.21 910.86,-197.91 916.83,-201.57"/>
</g>
<!-- table29 -->
<g id="node8" class="node">
<title>table29</title>
<polygon fill="none" stroke="black" points="1054.5,-160 1054.5,-186 1172.5,-186 1172.5,-160 1054.5,-160"/>
<text text-anchor="start" x="1066.25" y="-168.7" font-family="Arial" font-weight="bold" font-size="14.00">rdiff [ProcOP]</text>
<polygon fill="none" stroke="black" points="1054.5,-134 1054.5,-160 1084.5,-160 1084.5,-134 1054.5,-134"/>
<text text-anchor="start" x="1059.38" y="-141.7" font-family="Arial" font-size="14.00">res</text>
<polygon fill="none" stroke="black" points="1084.5,-134 1084.5,-160 1124.5,-160 1124.5,-134 1084.5,-134"/>
<text text-anchor="start" x="1089.5" y="-141.7" font-family="Arial" font-size="14.00">VAR</text>
<polygon fill="none" stroke="black" points="1124.5,-134 1124.5,-160 1172.5,-160 1172.5,-134 1124.5,-134"/>
<text text-anchor="start" x="1129.38" y="-141.7" font-family="Arial" font-size="14.00">REAL</text>
<polygon fill="none" stroke="black" points="1054.5,-108 1054.5,-134 1084.5,-134 1084.5,-108 1054.5,-108"/>
<text text-anchor="start" x="1063.12" y="-115.7" font-family="Arial" font-size="14.00">r1</text>
<polygon fill="none" stroke="black" points="1084.5,-108 1084.5,-134 1124.5,-134 1124.5,-108 1084.5,-108"/>
<text text-anchor="start" x="1089.5" y="-115.7" font-family="Arial" font-size="14.00">VAR</text>
<polygon fill="none" stroke="black" points="1124.5,-108 1124.5,-134 1172.5,-134 1172.5,-108 1124.5,-108"/>
<text text-anchor="start" x="1129.38" y="-115.7" font-family="Arial" font-size="14.00">REAL</text>
<polygon fill="none" stroke="black" points="1054.5,-82 1054.5,-108 1084.5,-108 1084.5,-82 1054.5,-82"/>
<text text-anchor="start" x="1063.12" y="-89.7" font-family="Arial" font-size="14.00">r2</text>
<polygon fill="none" stroke="black" points="1084.5,-82 1084.5,-108 1124.5,-108 1124.5,-82 1084.5,-82"/>
<text text-anchor="start" x="1089.5" y="-89.7" font-family="Arial" font-size="14.00">VAR</text>
<polygon fill="none" stroke="black" points="1124.5,-82 1124.5,-108 1172.5,-108 1172.5,-82 1124.5,-82"/>
<text text-anchor="start" x="1129.38" y="-89.7" font-family="Arial" font-size="14.00">REAL</text>
</g>
<!-- table1&#45;&gt;table29 -->
<g id="edge7" class="edge">
<title>table1&#45;&gt;table29</title>
<path fill="none" stroke="black" d="M967.45,-328.04C992.56,-309.81 1016.69,-289.69 1037.5,-268 1056.34,-248.35 1072.27,-223.16 1084.59,-199.99"/>
<polygon fill="black" stroke="black" points="1087.65,-201.7 1089.13,-191.21 1081.43,-198.48 1087.65,-201.7"/>
</g>
<!-- table30 -->
<g id="node9" class="node">
<title>table30</title>
<polygon fill="none" stroke="black" points="1206.5,-160 1206.5,-186 1324.5,-186 1324.5,-160 1206.5,-160"/>
<text text-anchor="start" x="1216.38" y="-168.7" font-family="Arial" font-weight="bold" font-size="14.00">rmul [ProcOP]</text>
<polygon fill="none" stroke="black" points="1206.5,-134 1206.5,-160 1236.5,-160 1236.5,-134 1206.5,-134"/>
<text text-anchor="start" x="1211.38" y="-141.7" font-family="Arial" font-size="14.00">res</text>
<polygon fill="none" stroke="black" points="1236.5,-134 1236.5,-160 1276.5,-160 1276.5,-134 1236.5,-134"/>
<text text-anchor="start" x="1241.5" y="-141.7" font-family="Arial" font-size="14.00">VAR</text>
<polygon fill="none" stroke="black" points="1276.5,-134 1276.5,-160 1324.5,-160 1324.5,-134 1276.5,-134"/>
<text text-anchor="start" x="1281.38" y="-141.7" font-family="Arial" font-size="14.00">REAL</text>
<polygon fill="none" stroke="black" points="1206.5,-108 1206.5,-134 1236.5,-134 1236.5,-108 1206.5,-108"/>
<text text-anchor="start" x="1215.12" y="-115.7" font-family="Arial" font-size="14.00">r1</text>
<polygon fill="none" stroke="black" points="1236.5,-108 1236.5,-134 1276.5,-134 1276.5,-108 1236.5,-108"/>
<text text-anchor="start" x="1241.5" y="-115.7" font-family="Arial" font-size="14.00">VAR</text>
<polygon fill="none" stroke="black" points="1276.5,-108 1276.5,-134 1324.5,-134 1324.5,-108 1276.5,-108"/>
<text text-anchor="start" x="1281.38" y="-115.7" font-family="Arial" font-size="14.00">REAL</text>
<polygon fill="none" stroke="black" points="1206.5,-82 1206.5,-108 1236.5,-108 1236.5,-82 1206.5,-82"/>
<text text-anchor="start" x="1215.12" y="-89.7" font-family="Arial" font-size="14.00">r2</text>
<polygon fill="none" stroke="black" points="1236.5,-82 1236.5,-108 1276.5,-108 1276.5,-82 1236.5,-82"/>
<text text-anchor="start" x="1241.5" y="-89.7" font-family="Arial" font-size="14.00">VAR</text>
<polygon fill="none" stroke="black" points="1276.5,-82 1276.5,-108 1324.5,-108 1324.5,-82 1276.5,-82"/>
<text text-anchor="start" x="1281.38" y="-89.7" font-family="Arial" font-size="14.00">REAL</text>
</g>
<!-- table1&#45;&gt;table30 -->
<g id="edge8" class="edge">
<title>table1&#45;&gt;table30</title>
<path fill="none" stroke="black" d="M967.37,-387.6C1043.16,-361.42 1126.41,-322.97 1189.5,-268 1210.55,-249.66 1227.12,-223.99 1239.34,-200.09"/>
<polygon fill="black" stroke="black" points="1242.37,-201.85 1243.65,-191.34 1236.09,-198.76 1242.37,-201.85"/>
</g>
<!-- table31 -->
<g id="node10" class="node">
<title>table31</title>
<polygon fill="none" stroke="black" points="1358.5,-160 1358.5,-186 1476.5,-186 1476.5,-160 1358.5,-160"/>
<text text-anchor="start" x="1370.62" y="-168.7" font-family="Arial" font-weight="bold" font-size="14.00">rdiv [ProcOP]</text>
<polygon fill="none" stroke="black" points="1358.5,-134 1358.5,-160 1388.5,-160 1388.5,-134 1358.5,-134"/>
<text text-anchor="start" x="1363.38" y="-141.7" font-family="Arial" font-size="14.00">res</text>
<polygon fill="none" stroke="black" points="1388.5,-134 1388.5,-160 1428.5,-160 1428.5,-134 1388.5,-134"/>
<text text-anchor="start" x="1393.5" y="-141.7" font-family="Arial" font-size="14.00">VAR</text>
<polygon fill="none" stroke="black" points="1428.5,-134 1428.5,-160 1476.5,-160 1476.5,-134 1428.5,-134"/>
<text text-anchor="start" x="1433.38" y="-141.7" font-family="Arial" font-size="14.00">REAL</text>
<polygon fill="none" stroke="black" points="1358.5,-108 1358.5,-134 1388.5,-134 1388.5,-108 1358.5,-108"/>
<text text-anchor="start" x="1367.12" y="-115.7" font-family="Arial" font-size="14.00">r1</text>
<polygon fill="none" stroke="black" points="1388.5,-108 1388.5,-134 1428.5,-134 1428.5,-108 1388.5,-108"/>
<text text-anchor="start" x="1393.5" y="-115.7" font-family="Arial" font-size="14.00">VAR</text>
<polygon fill="none" stroke="black" points="1428.5,-108 1428.5,-134 1476.5,-134 1476.5,-108 1428.5,-108"/>
<text text-anchor="start" x="1433.38" y="-115.7" font-family="Arial" font-size="14.00">REAL</text>
<polygon fill="none" stroke="black" points="1358.5,-82 1358.5,-108 1388.5,-108 1388.5,-82 1358.5,-82"/>
<text text-anchor="start" x="1367.12" y="-89.7" font-family="Arial" font-size="14.00">r2</text>
<polygon fill="none" stroke="black" points="1388.5,-82 1388.5,-108 1428.5,-108 1428.5,-82 1388.5,-82"/>
<text text-anchor="start" x="1393.5" y="-89.7" font-family="Arial" font-size="14.00">VAR</text>
<polygon fill="none" stroke="black" points="1428.5,-82 1428.5,-108 1476.5,-108 1476.5,-82 1428.5,-82"/>
<text text-anchor="start" x="1433.38" y="-89.7" font-family="Arial" font-size="14.00">REAL</text>
</g>
<!-- table1&#45;&gt;table31 -->
<g id="edge9" class="edge">
<title>table1&#45;&gt;table31</title>
<path fill="none" stroke="black" d="M967.35,-416C1086.27,-394.89 1234.53,-352.61 1341.5,-268 1363.67,-250.46 1380.54,-224.55 1392.68,-200.25"/>
<polygon fill="black" stroke="black" points="1395.79,-201.86 1396.94,-191.33 1389.47,-198.84 1395.79,-201.86"/>
</g>
</g>
</svg>
