<?xml version="1.0" encoding="UTF-8" standalone="no"?>
<!DOCTYPE svg PUBLIC "-//W3C//DTD SVG 1.1//EN"
 "http://www.w3.org/Graphics/SVG/1.1/DTD/svg11.dtd">
<!-- Generated by graphviz version 2.43.0 (0)
 -->
<!-- Title: g Pages: 1 -->
<svg width="1450pt" height="560pt"
 viewBox="0.00 0.00 1449.50 560.00" xmlns="http://www.w3.org/2000/svg" xmlns:xlink="http://www.w3.org/1999/xlink">
<g id="graph0" class="graph" transform="scale(1 1) rotate(0) translate(4 556)">
<title>g</title>
<polygon fill="white" stroke="transparent" points="-4,4 -4,-556 1445.5,-556 1445.5,4 -4,4"/>
<!-- table1 -->
<g id="node1" class="node">
<title>table1</title>
<polygon fill="none" stroke="black" points="563,-523 563,-548 931,-548 931,-523 563,-523"/>
<text text-anchor="start" x="668.5" y="-532.8" font-family="Arial" font-weight="bold" font-size="14.00">GLOBALS [ProgramOP]</text>
<polygon fill="none" stroke="black" points="563,-498 563,-523 624,-523 624,-498 563,-498"/>
<text text-anchor="start" x="578" y="-506.8" font-family="Arial" font-size="14.00">main</text>
<polygon fill="none" stroke="black" points="624,-498 624,-523 674,-523 674,-498 624,-498"/>
<text text-anchor="start" x="629" y="-506.8" font-family="Arial" font-size="14.00">PROC</text>
<polygon fill="none" stroke="black" points="674,-498 674,-523 931,-523 931,-498 674,-498"/>
<polygon fill="none" stroke="black" points="563,-473 563,-498 624,-498 624,-473 563,-473"/>
<text text-anchor="start" x="569" y="-481.8" font-family="Arial" font-size="14.00">isomma</text>
<polygon fill="none" stroke="black" points="624,-473 624,-498 674,-498 674,-473 624,-473"/>
<text text-anchor="start" x="635" y="-481.8" font-family="Arial" font-size="14.00">FUN</text>
<polygon fill="none" stroke="black" points="674,-473 674,-498 931,-498 931,-473 674,-473"/>
<text text-anchor="start" x="679" y="-481.8" font-family="Arial" font-size="14.00">IN:INTEGER, IN:INTEGER → INTEGER</text>
<polygon fill="none" stroke="black" points="563,-448 563,-473 624,-473 624,-448 563,-448"/>
<text text-anchor="start" x="582.5" y="-456.8" font-family="Arial" font-size="14.00">idiff</text>
<polygon fill="none" stroke="black" points="624,-448 624,-473 674,-473 674,-448 624,-448"/>
<text text-anchor="start" x="635" y="-456.8" font-family="Arial" font-size="14.00">FUN</text>
<polygon fill="none" stroke="black" points="674,-448 674,-473 931,-473 931,-448 674,-448"/>
<text text-anchor="start" x="679" y="-456.8" font-family="Arial" font-size="14.00">IN:INTEGER, IN:INTEGER → INTEGER</text>
<polygon fill="none" stroke="black" points="563,-423 563,-448 624,-448 624,-423 563,-423"/>
<text text-anchor="start" x="580.5" y="-431.8" font-family="Arial" font-size="14.00">imul</text>
<polygon fill="none" stroke="black" points="624,-423 624,-448 674,-448 674,-423 624,-423"/>
<text text-anchor="start" x="635" y="-431.8" font-family="Arial" font-size="14.00">FUN</text>
<polygon fill="none" stroke="black" points="674,-423 674,-448 931,-448 931,-423 674,-423"/>
<text text-anchor="start" x="679" y="-431.8" font-family="Arial" font-size="14.00">IN:INTEGER, IN:INTEGER → INTEGER</text>
<polygon fill="none" stroke="black" points="563,-398 563,-423 624,-423 624,-398 563,-398"/>
<text text-anchor="start" x="583" y="-406.8" font-family="Arial" font-size="14.00">idiv</text>
<polygon fill="none" stroke="black" points="624,-398 624,-423 674,-423 674,-398 624,-398"/>
<text text-anchor="start" x="635" y="-406.8" font-family="Arial" font-size="14.00">FUN</text>
<polygon fill="none" stroke="black" points="674,-398 674,-423 931,-423 931,-398 674,-398"/>
<text text-anchor="start" x="679" y="-406.8" font-family="Arial" font-size="14.00">IN:INTEGER, IN:INTEGER → INTEGER</text>
<polygon fill="none" stroke="black" points="563,-373 563,-398 624,-398 624,-373 563,-373"/>
<text text-anchor="start" x="568" y="-381.8" font-family="Arial" font-size="14.00">rsomma</text>
<polygon fill="none" stroke="black" points="624,-373 624,-398 674,-398 674,-373 624,-373"/>
<text text-anchor="start" x="629" y="-381.8" font-family="Arial" font-size="14.00">PROC</text>
<polygon fill="none" stroke="black" points="674,-373 674,-398 931,-398 931,-373 674,-373"/>
<text text-anchor="start" x="681" y="-381.8" font-family="Arial" font-size="14.00">INOUT:REAL, INOUT:REAL, OUT:REAL</text>
<polygon fill="none" stroke="black" points="563,-348 563,-373 624,-373 624,-348 563,-348"/>
<text text-anchor="start" x="582" y="-356.8" font-family="Arial" font-size="14.00">rdiff</text>
<polygon fill="none" stroke="black" points="624,-348 624,-373 674,-373 674,-348 624,-348"/>
<text text-anchor="start" x="629" y="-356.8" font-family="Arial" font-size="14.00">PROC</text>
<polygon fill="none" stroke="black" points="674,-348 674,-373 931,-373 931,-348 674,-348"/>
<text text-anchor="start" x="681" y="-356.8" font-family="Arial" font-size="14.00">INOUT:REAL, INOUT:REAL, OUT:REAL</text>
<polygon fill="none" stroke="black" points="563,-323 563,-348 624,-348 624,-323 563,-323"/>
<text text-anchor="start" x="579.5" y="-331.8" font-family="Arial" font-size="14.00">rmul</text>
<polygon fill="none" stroke="black" points="624,-323 624,-348 674,-348 674,-323 624,-323"/>
<text text-anchor="start" x="629" y="-331.8" font-family="Arial" font-size="14.00">PROC</text>
<polygon fill="none" stroke="black" points="674,-323 674,-348 931,-348 931,-323 674,-323"/>
<text text-anchor="start" x="681" y="-331.8" font-family="Arial" font-size="14.00">INOUT:REAL, INOUT:REAL, OUT:REAL</text>
<polygon fill="none" stroke="black" points="563,-298 563,-323 624,-323 624,-298 563,-298"/>
<text text-anchor="start" x="582.5" y="-306.8" font-family="Arial" font-size="14.00">rdiv</text>
<polygon fill="none" stroke="black" points="624,-298 624,-323 674,-323 674,-298 624,-298"/>
<text text-anchor="start" x="629" y="-306.8" font-family="Arial" font-size="14.00">PROC</text>
<polygon fill="none" stroke="black" points="674,-298 674,-323 931,-323 931,-298 674,-298"/>
<text text-anchor="start" x="681" y="-306.8" font-family="Arial" font-size="14.00">INOUT:REAL, INOUT:REAL, OUT:REAL</text>
</g>
<!-- table2 -->
<g id="node2" class="node">
<title>table2</title>
<polygon fill="none" stroke="black" points="8,-141 8,-166 138,-166 138,-141 8,-141"/>
<text text-anchor="start" x="17.5" y="-150.8" font-family="Arial" font-weight="bold" font-size="14.00">isomma [FunOP]</text>
<polygon fill="none" stroke="black" points="8,-116 8,-141 29,-141 29,-116 8,-116"/>
<text text-anchor="start" x="13" y="-124.8" font-family="Arial" font-size="14.00">i1</text>
<polygon fill="none" stroke="black" points="29,-116 29,-141 67,-141 67,-116 29,-116"/>
<text text-anchor="start" x="34" y="-124.8" font-family="Arial" font-size="14.00">VAR</text>
<polygon fill="none" stroke="black" points="67,-116 67,-141 138,-141 138,-116 67,-116"/>
<text text-anchor="start" x="72" y="-124.8" font-family="Arial" font-size="14.00">INTEGER</text>
<polygon fill="none" stroke="black" points="8,-91 8,-116 29,-116 29,-91 8,-91"/>
<text text-anchor="start" x="13" y="-99.8" font-family="Arial" font-size="14.00">i2</text>
<polygon fill="none" stroke="black" points="29,-91 29,-116 67,-116 67,-91 29,-91"/>
<text text-anchor="start" x="34" y="-99.8" font-family="Arial" font-size="14.00">VAR</text>
<polygon fill="none" stroke="black" points="67,-91 67,-116 138,-116 138,-91 67,-91"/>
<text text-anchor="start" x="72" y="-99.8" font-family="Arial" font-size="14.00">INTEGER</text>
</g>
<!-- table1&#45;&gt;table2 -->
<g id="edge1" class="edge">
<title>table1&#45;&gt;table2</title>
<path fill="none" stroke="black" d="M554.96,-404.33C430.91,-384.86 271.5,-343.95 155,-258 128.12,-238.17 107.77,-206.65 94.07,-179.86"/>
<polygon fill="black" stroke="black" points="97.07,-178.02 89.5,-170.61 90.79,-181.12 97.07,-178.02"/>
</g>
<!-- table3 -->
<g id="node3" class="node">
<title>table3</title>
<polygon fill="none" stroke="black" points="172,-141 172,-166 302,-166 302,-141 172,-141"/>
<text text-anchor="start" x="195.5" y="-150.8" font-family="Arial" font-weight="bold" font-size="14.00">idiff [FunOP]</text>
<polygon fill="none" stroke="black" points="172,-116 172,-141 193,-141 193,-116 172,-116"/>
<text text-anchor="start" x="177" y="-124.8" font-family="Arial" font-size="14.00">i1</text>
<polygon fill="none" stroke="black" points="193,-116 193,-141 231,-141 231,-116 193,-116"/>
<text text-anchor="start" x="198" y="-124.8" font-family="Arial" font-size="14.00">VAR</text>
<polygon fill="none" stroke="black" points="231,-116 231,-141 302,-141 302,-116 231,-116"/>
<text text-anchor="start" x="236" y="-124.8" font-family="Arial" font-size="14.00">INTEGER</text>
<polygon fill="none" stroke="black" points="172,-91 172,-116 193,-116 193,-91 172,-91"/>
<text text-anchor="start" x="177" y="-99.8" font-family="Arial" font-size="14.00">i2</text>
<polygon fill="none" stroke="black" points="193,-91 193,-116 231,-116 231,-91 193,-91"/>
<text text-anchor="start" x="198" y="-99.8" font-family="Arial" font-size="14.00">VAR</text>
<polygon fill="none" stroke="black" points="231,-91 231,-116 302,-116 302,-91 231,-91"/>
<text text-anchor="start" x="236" y="-99.8" font-family="Arial" font-size="14.00">INTEGER</text>
</g>
<!-- table1&#45;&gt;table3 -->
<g id="edge2" class="edge">
<title>table1&#45;&gt;table3</title>
<path fill="none" stroke="black" d="M554.92,-376.93C475.84,-351.5 387.02,-313.4 319,-258 293.37,-237.13 273.2,-206.05 259.27,-179.74"/>
<polygon fill="black" stroke="black" points="262.29,-177.95 254.6,-170.65 256.06,-181.15 262.29,-177.95"/>
</g>
<!-- table4 -->
<g id="node4" class="node">
<title>table4</title>
<polygon fill="none" stroke="black" points="336,-141 336,-166 466,-166 466,-141 336,-141"/>
<text text-anchor="start" x="357.5" y="-150.8" font-family="Arial" font-weight="bold" font-size="14.00">imul [FunOP]</text>
<polygon fill="none" stroke="black" points="336,-116 336,-141 357,-141 357,-116 336,-116"/>
<text text-anchor="start" x="341" y="-124.8" font-family="Arial" font-size="14.00">i1</text>
<polygon fill="none" stroke="black" points="357,-116 357,-141 395,-141 395,-116 357,-116"/>
<text text-anchor="start" x="362" y="-124.8" font-family="Arial" font-size="14.00">VAR</text>
<polygon fill="none" stroke="black" points="395,-116 395,-141 466,-141 466,-116 395,-116"/>
<text text-anchor="start" x="400" y="-124.8" font-family="Arial" font-size="14.00">INTEGER</text>
<polygon fill="none" stroke="black" points="336,-91 336,-116 357,-116 357,-91 336,-91"/>
<text text-anchor="start" x="341" y="-99.8" font-family="Arial" font-size="14.00">i2</text>
<polygon fill="none" stroke="black" points="357,-91 357,-116 395,-116 395,-91 357,-91"/>
<text text-anchor="start" x="362" y="-99.8" font-family="Arial" font-size="14.00">VAR</text>
<polygon fill="none" stroke="black" points="395,-91 395,-116 466,-116 466,-91 395,-91"/>
<text text-anchor="start" x="400" y="-99.8" font-family="Arial" font-size="14.00">INTEGER</text>
</g>
<!-- table1&#45;&gt;table4 -->
<g id="edge3" class="edge">
<title>table1&#45;&gt;table4</title>
<path fill="none" stroke="black" d="M554.76,-316.96C529.25,-299 504.51,-279.22 483,-258 459.89,-235.21 440.06,-204.77 425.69,-179.29"/>
<polygon fill="black" stroke="black" points="428.73,-177.57 420.84,-170.51 422.61,-180.95 428.73,-177.57"/>
</g>
<!-- table5 -->
<g id="node5" class="node">
<title>table5</title>
<polygon fill="none" stroke="black" points="500,-141 500,-166 630,-166 630,-141 500,-141"/>
<text text-anchor="start" x="524" y="-150.8" font-family="Arial" font-weight="bold" font-size="14.00">idiv [FunOP]</text>
<polygon fill="none" stroke="black" points="500,-116 500,-141 521,-141 521,-116 500,-116"/>
<text text-anchor="start" x="505" y="-124.8" font-family="Arial" font-size="14.00">i1</text>
<polygon fill="none" stroke="black" points="521,-116 521,-141 559,-141 559,-116 521,-116"/>
<text text-anchor="start" x="526" y="-124.8" font-family="Arial" font-size="14.00">VAR</text>
<polygon fill="none" stroke="black" points="559,-116 559,-141 630,-141 630,-116 559,-116"/>
<text text-anchor="start" x="564" y="-124.8" font-family="Arial" font-size="14.00">INTEGER</text>
<polygon fill="none" stroke="black" points="500,-91 500,-116 521,-116 521,-91 500,-91"/>
<text text-anchor="start" x="505" y="-99.8" font-family="Arial" font-size="14.00">i2</text>
<polygon fill="none" stroke="black" points="521,-91 521,-116 559,-116 559,-91 521,-91"/>
<text text-anchor="start" x="526" y="-99.8" font-family="Arial" font-size="14.00">VAR</text>
<polygon fill="none" stroke="black" points="559,-91 559,-116 630,-116 630,-91 559,-91"/>
<text text-anchor="start" x="564" y="-99.8" font-family="Arial" font-size="14.00">INTEGER</text>
</g>
<!-- table1&#45;&gt;table5 -->
<g id="edge4" class="edge">
<title>table1&#45;&gt;table5</title>
<path fill="none" stroke="black" d="M667.17,-293.92C641.85,-253.31 615.37,-210.81 595.7,-179.26"/>
<polygon fill="black" stroke="black" points="598.61,-177.3 590.35,-170.67 592.67,-181 598.61,-177.3"/>
</g>
<!-- table6 -->
<g id="node6" class="node">
<title>table6</title>
<polygon fill="none" stroke="black" points="665,-229 665,-254 830,-254 830,-229 665,-229"/>
<text text-anchor="start" x="699.5" y="-238.8" font-family="Arial" font-weight="bold" font-size="14.00">main [ProcOP]</text>
<polygon fill="none" stroke="black" points="665,-204 665,-229 715,-229 715,-204 665,-204"/>
<text text-anchor="start" x="675.5" y="-212.8" font-family="Arial" font-size="14.00">legal</text>
<polygon fill="none" stroke="black" points="715,-204 715,-229 753,-229 753,-204 715,-204"/>
<text text-anchor="start" x="720" y="-212.8" font-family="Arial" font-size="14.00">VAR</text>
<polygon fill="none" stroke="black" points="753,-204 753,-229 830,-229 830,-204 753,-204"/>
<text text-anchor="start" x="758" y="-212.8" font-family="Arial" font-size="14.00">BOOLEAN</text>
<polygon fill="none" stroke="black" points="665,-179 665,-204 715,-204 715,-179 665,-179"/>
<text text-anchor="start" x="682" y="-187.8" font-family="Arial" font-size="14.00">op</text>
<polygon fill="none" stroke="black" points="715,-179 715,-204 753,-204 753,-179 715,-179"/>
<text text-anchor="start" x="720" y="-187.8" font-family="Arial" font-size="14.00">VAR</text>
<polygon fill="none" stroke="black" points="753,-179 753,-204 830,-204 830,-179 753,-179"/>
<text text-anchor="start" x="761" y="-187.8" font-family="Arial" font-size="14.00">INTEGER</text>
<polygon fill="none" stroke="black" points="665,-154 665,-179 715,-179 715,-154 665,-154"/>
<text text-anchor="start" x="684.5" y="-162.8" font-family="Arial" font-size="14.00">i1</text>
<polygon fill="none" stroke="black" points="715,-154 715,-179 753,-179 753,-154 715,-154"/>
<text text-anchor="start" x="720" y="-162.8" font-family="Arial" font-size="14.00">VAR</text>
<polygon fill="none" stroke="black" points="753,-154 753,-179 830,-179 830,-154 753,-154"/>
<text text-anchor="start" x="761" y="-162.8" font-family="Arial" font-size="14.00">INTEGER</text>
<polygon fill="none" stroke="black" points="665,-129 665,-154 715,-154 715,-129 665,-129"/>
<text text-anchor="start" x="684.5" y="-137.8" font-family="Arial" font-size="14.00">i2</text>
<polygon fill="none" stroke="black" points="715,-129 715,-154 753,-154 753,-129 715,-129"/>
<text text-anchor="start" x="720" y="-137.8" font-family="Arial" font-size="14.00">VAR</text>
<polygon fill="none" stroke="black" points="753,-129 753,-154 830,-154 830,-129 753,-129"/>
<text text-anchor="start" x="761" y="-137.8" font-family="Arial" font-size="14.00">INTEGER</text>
<polygon fill="none" stroke="black" points="665,-104 665,-129 715,-129 715,-104 665,-104"/>
<text text-anchor="start" x="679" y="-112.8" font-family="Arial" font-size="14.00">ires</text>
<polygon fill="none" stroke="black" points="715,-104 715,-129 753,-129 753,-104 715,-104"/>
<text text-anchor="start" x="720" y="-112.8" font-family="Arial" font-size="14.00">VAR</text>
<polygon fill="none" stroke="black" points="753,-104 753,-129 830,-129 830,-104 753,-104"/>
<text text-anchor="start" x="761" y="-112.8" font-family="Arial" font-size="14.00">INTEGER</text>
<polygon fill="none" stroke="black" points="665,-79 665,-104 715,-104 715,-79 665,-79"/>
<text text-anchor="start" x="683.5" y="-87.8" font-family="Arial" font-size="14.00">r1</text>
<polygon fill="none" stroke="black" points="715,-79 715,-104 753,-104 753,-79 715,-79"/>
<text text-anchor="start" x="720" y="-87.8" font-family="Arial" font-size="14.00">VAR</text>
<polygon fill="none" stroke="black" points="753,-79 753,-104 830,-104 830,-79 753,-79"/>
<text text-anchor="start" x="773.5" y="-87.8" font-family="Arial" font-size="14.00">REAL</text>
<polygon fill="none" stroke="black" points="665,-54 665,-79 715,-79 715,-54 665,-54"/>
<text text-anchor="start" x="678" y="-62.8" font-family="Arial" font-size="14.00">rres</text>
<polygon fill="none" stroke="black" points="715,-54 715,-79 753,-79 753,-54 715,-54"/>
<text text-anchor="start" x="720" y="-62.8" font-family="Arial" font-size="14.00">VAR</text>
<polygon fill="none" stroke="black" points="753,-54 753,-79 830,-79 830,-54 753,-54"/>
<text text-anchor="start" x="773.5" y="-62.8" font-family="Arial" font-size="14.00">REAL</text>
<polygon fill="none" stroke="black" points="665,-29 665,-54 715,-54 715,-29 665,-29"/>
<text text-anchor="start" x="683.5" y="-37.8" font-family="Arial" font-size="14.00">r2</text>
<polygon fill="none" stroke="black" points="715,-29 715,-54 753,-54 753,-29 715,-29"/>
<text text-anchor="start" x="720" y="-37.8" font-family="Arial" font-size="14.00">VAR</text>
<polygon fill="none" stroke="black" points="753,-29 753,-54 830,-54 830,-29 753,-29"/>
<text text-anchor="start" x="773.5" y="-37.8" font-family="Arial" font-size="14.00">REAL</text>
<polygon fill="none" stroke="black" points="665,-4 665,-29 715,-29 715,-4 665,-4"/>
<text text-anchor="start" x="670" y="-12.8" font-family="Arial" font-size="14.00">format</text>
<polygon fill="none" stroke="black" points="715,-4 715,-29 753,-29 753,-4 715,-4"/>
<text text-anchor="start" x="720" y="-12.8" font-family="Arial" font-size="14.00">VAR</text>
<polygon fill="none" stroke="black" points="753,-4 753,-29 830,-29 830,-4 753,-4"/>
<text text-anchor="start" x="761" y="-12.8" font-family="Arial" font-size="14.00">INTEGER</text>
</g>
<!-- table1&#45;&gt;table6 -->
<g id="edge5" class="edge">
<title>table1&#45;&gt;table6</title>
<path fill="none" stroke="black" d="M747,-293.92C747,-285.54 747,-277.07 747,-268.63"/>
<polygon fill="black" stroke="black" points="750.5,-268.37 747,-258.37 743.5,-268.37 750.5,-268.37"/>
</g>
<!-- table28 -->
<g id="node7" class="node">
<title>table28</title>
<polygon fill="none" stroke="black" points="864,-154 864,-179 992,-179 992,-154 864,-154"/>
<text text-anchor="start" x="869" y="-163.8" font-family="Arial" font-weight="bold" font-size="14.00">rsomma [ProcOP]</text>
<polygon fill="none" stroke="black" points="864,-129 864,-154 900,-154 900,-129 864,-129"/>
<text text-anchor="start" x="872.5" y="-137.8" font-family="Arial" font-size="14.00">res</text>
<polygon fill="none" stroke="black" points="900,-129 900,-154 942,-154 942,-129 900,-129"/>
<text text-anchor="start" x="907" y="-137.8" font-family="Arial" font-size="14.00">VAR</text>
<polygon fill="none" stroke="black" points="942,-129 942,-154 992,-154 992,-129 942,-129"/>
<text text-anchor="start" x="949" y="-137.8" font-family="Arial" font-size="14.00">REAL</text>
<polygon fill="none" stroke="black" points="864,-104 864,-129 900,-129 900,-104 864,-104"/>
<text text-anchor="start" x="875.5" y="-112.8" font-family="Arial" font-size="14.00">r1</text>
<polygon fill="none" stroke="black" points="900,-104 900,-129 942,-129 942,-104 900,-104"/>
<text text-anchor="start" x="907" y="-112.8" font-family="Arial" font-size="14.00">VAR</text>
<polygon fill="none" stroke="black" points="942,-104 942,-129 992,-129 992,-104 942,-104"/>
<text text-anchor="start" x="949" y="-112.8" font-family="Arial" font-size="14.00">REAL</text>
<polygon fill="none" stroke="black" points="864,-79 864,-104 900,-104 900,-79 864,-79"/>
<text text-anchor="start" x="875.5" y="-87.8" font-family="Arial" font-size="14.00">r2</text>
<polygon fill="none" stroke="black" points="900,-79 900,-104 942,-104 942,-79 900,-79"/>
<text text-anchor="start" x="907" y="-87.8" font-family="Arial" font-size="14.00">VAR</text>
<polygon fill="none" stroke="black" points="942,-79 942,-104 992,-104 992,-79 942,-79"/>
<text text-anchor="start" x="949" y="-87.8" font-family="Arial" font-size="14.00">REAL</text>
</g>
<!-- table1&#45;&gt;table28 -->
<g id="edge6" class="edge">
<title>table1&#45;&gt;table28</title>
<path fill="none" stroke="black" d="M826.39,-293.92C848.35,-258.5 871.19,-221.65 889.65,-191.87"/>
<polygon fill="black" stroke="black" points="892.68,-193.62 894.98,-183.27 886.73,-189.93 892.68,-193.62"/>
</g>
<!-- table29 -->
<g id="node8" class="node">
<title>table29</title>
<polygon fill="none" stroke="black" points="1027,-154 1027,-179 1140,-179 1140,-154 1027,-154"/>
<text text-anchor="start" x="1038.5" y="-163.8" font-family="Arial" font-weight="bold" font-size="14.00">rdiff [ProcOP]</text>
<polygon fill="none" stroke="black" points="1027,-129 1027,-154 1056,-154 1056,-129 1027,-129"/>
<text text-anchor="start" x="1032" y="-137.8" font-family="Arial" font-size="14.00">res</text>
<polygon fill="none" stroke="black" points="1056,-129 1056,-154 1094,-154 1094,-129 1056,-129"/>
<text text-anchor="start" x="1061" y="-137.8" font-family="Arial" font-size="14.00">VAR</text>
<polygon fill="none" stroke="black" points="1094,-129 1094,-154 1140,-154 1140,-129 1094,-129"/>
<text text-anchor="start" x="1099" y="-137.8" font-family="Arial" font-size="14.00">REAL</text>
<polygon fill="none" stroke="black" points="1027,-104 1027,-129 1056,-129 1056,-104 1027,-104"/>
<text text-anchor="start" x="1035" y="-112.8" font-family="Arial" font-size="14.00">r1</text>
<polygon fill="none" stroke="black" points="1056,-104 1056,-129 1094,-129 1094,-104 1056,-104"/>
<text text-anchor="start" x="1061" y="-112.8" font-family="Arial" font-size="14.00">VAR</text>
<polygon fill="none" stroke="black" points="1094,-104 1094,-129 1140,-129 1140,-104 1094,-104"/>
<text text-anchor="start" x="1099" y="-112.8" font-family="Arial" font-size="14.00">REAL</text>
<polygon fill="none" stroke="black" points="1027,-79 1027,-104 1056,-104 1056,-79 1027,-79"/>
<text text-anchor="start" x="1035" y="-87.8" font-family="Arial" font-size="14.00">r2</text>
<polygon fill="none" stroke="black" points="1056,-79 1056,-104 1094,-104 1094,-79 1056,-79"/>
<text text-anchor="start" x="1061" y="-87.8" font-family="Arial" font-size="14.00">VAR</text>
<polygon fill="none" stroke="black" points="1094,-79 1094,-104 1140,-104 1140,-79 1094,-79"/>
<text text-anchor="start" x="1099" y="-87.8" font-family="Arial" font-size="14.00">REAL</text>
</g>
<!-- table1&#45;&gt;table29 -->
<g id="edge7" class="edge">
<title>table1&#45;&gt;table29</title>
<path fill="none" stroke="black" d="M939.33,-317.21C964.28,-299.27 988.31,-279.43 1009,-258 1027.33,-239.01 1042.88,-214.62 1054.92,-192.24"/>
<polygon fill="black" stroke="black" points="1058.15,-193.6 1059.69,-183.12 1051.95,-190.36 1058.15,-193.6"/>
</g>
<!-- table30 -->
<g id="node9" class="node">
<title>table30</title>
<polygon fill="none" stroke="black" points="1174,-154 1174,-179 1287,-179 1287,-154 1174,-154"/>
<text text-anchor="start" x="1183.5" y="-163.8" font-family="Arial" font-weight="bold" font-size="14.00">rmul [ProcOP]</text>
<polygon fill="none" stroke="black" points="1174,-129 1174,-154 1203,-154 1203,-129 1174,-129"/>
<text text-anchor="start" x="1179" y="-137.8" font-family="Arial" font-size="14.00">res</text>
<polygon fill="none" stroke="black" points="1203,-129 1203,-154 1241,-154 1241,-129 1203,-129"/>
<text text-anchor="start" x="1208" y="-137.8" font-family="Arial" font-size="14.00">VAR</text>
<polygon fill="none" stroke="black" points="1241,-129 1241,-154 1287,-154 1287,-129 1241,-129"/>
<text text-anchor="start" x="1246" y="-137.8" font-family="Arial" font-size="14.00">REAL</text>
<polygon fill="none" stroke="black" points="1174,-104 1174,-129 1203,-129 1203,-104 1174,-104"/>
<text text-anchor="start" x="1182" y="-112.8" font-family="Arial" font-size="14.00">r1</text>
<polygon fill="none" stroke="black" points="1203,-104 1203,-129 1241,-129 1241,-104 1203,-104"/>
<text text-anchor="start" x="1208" y="-112.8" font-family="Arial" font-size="14.00">VAR</text>
<polygon fill="none" stroke="black" points="1241,-104 1241,-129 1287,-129 1287,-104 1241,-104"/>
<text text-anchor="start" x="1246" y="-112.8" font-family="Arial" font-size="14.00">REAL</text>
<polygon fill="none" stroke="black" points="1174,-79 1174,-104 1203,-104 1203,-79 1174,-79"/>
<text text-anchor="start" x="1182" y="-87.8" font-family="Arial" font-size="14.00">r2</text>
<polygon fill="none" stroke="black" points="1203,-79 1203,-104 1241,-104 1241,-79 1203,-79"/>
<text text-anchor="start" x="1208" y="-87.8" font-family="Arial" font-size="14.00">VAR</text>
<polygon fill="none" stroke="black" points="1241,-79 1241,-104 1287,-104 1287,-79 1241,-79"/>
<text text-anchor="start" x="1246" y="-87.8" font-family="Arial" font-size="14.00">REAL</text>
</g>
<!-- table1&#45;&gt;table30 -->
<g id="edge8" class="edge">
<title>table1&#45;&gt;table30</title>
<path fill="none" stroke="black" d="M939.13,-374.75C1013.37,-349.36 1095.14,-311.87 1157,-258 1177.35,-240.28 1193.33,-215.42 1205.08,-192.33"/>
<polygon fill="black" stroke="black" points="1208.27,-193.76 1209.53,-183.24 1201.99,-190.68 1208.27,-193.76"/>
</g>
<!-- table31 -->
<g id="node10" class="node">
<title>table31</title>
<polygon fill="none" stroke="black" points="1321,-154 1321,-179 1434,-179 1434,-154 1321,-154"/>
<text text-anchor="start" x="1333.5" y="-163.8" font-family="Arial" font-weight="bold" font-size="14.00">rdiv [ProcOP]</text>
<polygon fill="none" stroke="black" points="1321,-129 1321,-154 1350,-154 1350,-129 1321,-129"/>
<text text-anchor="start" x="1326" y="-137.8" font-family="Arial" font-size="14.00">res</text>
<polygon fill="none" stroke="black" points="1350,-129 1350,-154 1388,-154 1388,-129 1350,-129"/>
<text text-anchor="start" x="1355" y="-137.8" font-family="Arial" font-size="14.00">VAR</text>
<polygon fill="none" stroke="black" points="1388,-129 1388,-154 1434,-154 1434,-129 1388,-129"/>
<text text-anchor="start" x="1393" y="-137.8" font-family="Arial" font-size="14.00">REAL</text>
<polygon fill="none" stroke="black" points="1321,-104 1321,-129 1350,-129 1350,-104 1321,-104"/>
<text text-anchor="start" x="1329" y="-112.8" font-family="Arial" font-size="14.00">r1</text>
<polygon fill="none" stroke="black" points="1350,-104 1350,-129 1388,-129 1388,-104 1350,-104"/>
<text text-anchor="start" x="1355" y="-112.8" font-family="Arial" font-size="14.00">VAR</text>
<polygon fill="none" stroke="black" points="1388,-104 1388,-129 1434,-129 1434,-104 1388,-104"/>
<text text-anchor="start" x="1393" y="-112.8" font-family="Arial" font-size="14.00">REAL</text>
<polygon fill="none" stroke="black" points="1321,-79 1321,-104 1350,-104 1350,-79 1321,-79"/>
<text text-anchor="start" x="1329" y="-87.8" font-family="Arial" font-size="14.00">r2</text>
<polygon fill="none" stroke="black" points="1350,-79 1350,-104 1388,-104 1388,-79 1350,-79"/>
<text text-anchor="start" x="1355" y="-87.8" font-family="Arial" font-size="14.00">VAR</text>
<polygon fill="none" stroke="black" points="1388,-79 1388,-104 1434,-104 1434,-79 1388,-79"/>
<text text-anchor="start" x="1393" y="-87.8" font-family="Arial" font-size="14.00">REAL</text>
</g>
<!-- table1&#45;&gt;table31 -->
<g id="edge9" class="edge">
<title>table1&#45;&gt;table31</title>
<path fill="none" stroke="black" d="M939,-401.96C1054.83,-381.59 1199.65,-340.57 1304,-258 1325.43,-241.04 1341.69,-215.95 1353.35,-192.46"/>
<polygon fill="black" stroke="black" points="1356.62,-193.75 1357.76,-183.22 1350.3,-190.74 1356.62,-193.75"/>
</g>
</g>
</svg>
